<?xml version="1.0" encoding="utf-8"?>
<!-- Generator: Adobe Illustrator 16.0.0, SVG Export Plug-In . SVG Version: 6.00 Build 0)  -->
<!DOCTYPE svg PUBLIC "-//W3C//DTD SVG 1.1//EN" "http://www.w3.org/Graphics/SVG/1.1/DTD/svg11.dtd">
<svg version="1.1" id="Layer_1" xmlns="http://www.w3.org/2000/svg" xmlns:xlink="http://www.w3.org/1999/xlink" x="0px" y="0px"
	 width="43px" height="43px" viewBox="0 0 43 43" enable-background="new 0 0 43 43" xml:space="preserve">
<path d="M21.5,0C9.627,0,0,9.627,0,21.5S9.627,43,21.5,43S43,33.373,43,21.5S33.374,0,21.5,0L21.5,0z M21.5,41
	C10.73,41,2,32.27,2,21.5C2,10.732,10.73,2,21.5,2C32.269,2,41,10.732,41,21.5C41,32.27,32.269,41,21.5,41L21.5,41z"/>
<g>
	<polygon points="21.104,25.1 14.407,20.478 12.789,23.004 19.485,27.625 	"/>
	<path d="M24.538,29c1.59-1.726,2.573-4.059,2.573-6.629c0-2.507-0.924-4.861-2.596-6.661l3.226-5.036l-2.433-1.678l-7.626,11.905
		l2.433,1.679l2.726-4.256c0.871,1.151,1.349,2.56,1.349,4.047c0,3.623-2.84,6.568-6.33,6.568V29H13v3h16v-3H24.538z"/>
</g>
</svg>
