<?xml version="1.0" encoding="utf-8"?>
<!-- Generator: Adobe Illustrator 16.0.0, SVG Export Plug-In . SVG Version: 6.00 Build 0)  -->
<!DOCTYPE svg PUBLIC "-//W3C//DTD SVG 1.1//EN" "http://www.w3.org/Graphics/SVG/1.1/DTD/svg11.dtd">
<svg version="1.1" id="Layer_1" xmlns="http://www.w3.org/2000/svg" xmlns:xlink="http://www.w3.org/1999/xlink" x="0px" y="0px"
	 width="43px" height="43px" viewBox="0 0 43 43" enable-background="new 0 0 43 43" xml:space="preserve">
<path d="M32.834,12c-1.188,0-8.454,0.121-11.334,3.001C18.62,12.121,11.354,12,10.167,12c-0.108,0-0.166,0.001-0.166,0.001V30
	c0,0,0.057,0,0.166,0c1.188,0,8.454,0.119,11.334,3c2.88-2.881,10.146-3,11.334-3C32.943,30,33,30,33,30V12.002
	C33,12.002,32.943,12,32.834,12z M13,15.147c2.722,0.275,5.347,0.944,6.379,1.975L20,17.743v10.875
	c-2.295-0.922-4.893-1.334-7-1.505V15.147z M30,27.113c-2.106,0.171-4.704,0.583-7,1.505V17.743l0.62-0.621
	c1.034-1.031,3.657-1.7,6.38-1.975V27.113z"/>
<path d="M21.5,0C9.627,0,0,9.627,0,21.5S9.627,43,21.5,43C33.374,43,43,33.373,43,21.5S33.374,0,21.5,0L21.5,0z M21.5,41
	C10.732,41,2,32.27,2,21.5C2,10.732,10.732,2,21.5,2S41,10.732,41,21.5C41,32.27,32.269,41,21.5,41L21.5,41z"/>
</svg>
