<?xml version="1.0" encoding="utf-8"?>
<!-- Generator: Adobe Illustrator 16.0.0, SVG Export Plug-In . SVG Version: 6.00 Build 0)  -->
<!DOCTYPE svg PUBLIC "-//W3C//DTD SVG 1.1//EN" "http://www.w3.org/Graphics/SVG/1.1/DTD/svg11.dtd">
<svg version="1.1" id="Layer_1" xmlns="http://www.w3.org/2000/svg" xmlns:xlink="http://www.w3.org/1999/xlink" x="0px" y="0px"
	 width="43px" height="43px" viewBox="0 0 43 43" enable-background="new 0 0 43 43" xml:space="preserve">
<path d="M21.5,0C9.627,0,0,9.627,0,21.5S9.627,43,21.5,43C33.374,43,43,33.373,43,21.5S33.374,0,21.5,0L21.5,0z M21.5,41
	C10.732,41,2,32.27,2,21.5C2,10.732,10.732,2,21.5,2C32.271,2,41,10.732,41,21.5C41,32.27,32.271,41,21.5,41L21.5,41z"/>
<path d="M24,17.001V14h8v3.001H24L24,17.001z M12,23v-9h9v9H12L12,23z M18.001,17.001H15V20h3.001V17.001L18.001,17.001z M24,23v-3
	h8v3H24L24,23z M12,29v-2.998h20V29H12L12,29z"/>
</svg>
