<?xml version="1.0" encoding="utf-8"?>
<!-- Generator: Adobe Illustrator 16.0.0, SVG Export Plug-In . SVG Version: 6.00 Build 0)  -->
<!DOCTYPE svg PUBLIC "-//W3C//DTD SVG 1.1//EN" "http://www.w3.org/Graphics/SVG/1.1/DTD/svg11.dtd">
<svg version="1.1" id="Layer_1" xmlns="http://www.w3.org/2000/svg" xmlns:xlink="http://www.w3.org/1999/xlink" x="0px" y="0px"
	 width="43px" height="43px" viewBox="0 0 43 43" enable-background="new 0 0 43 43" xml:space="preserve">
<path d="M25,21v3H23v-4.999h3.001v-9h-9v9H20V24h-2v-3h-9v9h9v-2.998H25V30h9v-9H25z M20,13h3v3h-3V13z M15,27.002h-3V24h3V27.002z
	 M31,27.002h-3V24h3V27.002z"/>
<path d="M21.5,0C9.627,0,0,9.627,0,21.5S9.627,43,21.5,43C33.374,43,43,33.373,43,21.5S33.374,0,21.5,0L21.5,0z M21.5,41
	C10.732,41,2,32.27,2,21.5C2,10.732,10.732,2,21.5,2S41,10.732,41,21.5C41,32.27,32.269,41,21.5,41L21.5,41z"/>
</svg>
