<?xml version="1.0" encoding="utf-8"?>
<!-- Generator: Adobe Illustrator 16.0.0, SVG Export Plug-In . SVG Version: 6.00 Build 0)  -->
<!DOCTYPE svg PUBLIC "-//W3C//DTD SVG 1.1//EN" "https://www.w3.org/Graphics/SVG/1.1/DTD/svg11.dtd">
<svg version="1.1" id="Layer_1" xmlns="https://www.w3.org/2000/svg" xmlns:xlink="https://www.w3.org/1999/xlink" x="0px" y="0px"
	 width="20px" height="20px" viewBox="0 0 20 20" enable-background="new 0 0 20 20" xml:space="preserve">
<path d="M0,0v20h20V0H0z M9.136,16.85c-0.301,0-0.554-0.113-0.756-0.34c-0.202-0.229-0.303-0.516-0.303-0.861
	c0-0.279,0.157-1.092,0.471-2.441l0.607-2.615c0.05-0.249,0.077-0.411,0.077-0.489c0-0.144-0.058-0.216-0.173-0.216
	c-0.239,0-0.602,0.365-1.088,1.094L7.595,10.67c1.18-1.615,2.173-2.424,2.983-2.424c0.25,0,0.453,0.104,0.611,0.312
	c0.154,0.209,0.234,0.484,0.234,0.831c0,0.338-0.066,0.783-0.201,1.337l-0.96,4.082c-0.058,0.248-0.087,0.428-0.087,0.537
	c0,0.176,0.081,0.266,0.243,0.266c0.326,0,0.789-0.35,1.385-1.047l0.357,0.324C11.003,16.197,9.996,16.85,9.136,16.85z
	 M11.988,6.289c-0.283,0.355-0.615,0.531-0.992,0.531c-0.295,0-0.543-0.104-0.738-0.309c-0.196-0.205-0.294-0.466-0.294-0.784
	c0-0.509,0.141-0.94,0.418-1.295C10.664,4.078,10.998,3.9,11.39,3.9c0.301,0,0.547,0.103,0.736,0.308s0.285,0.478,0.285,0.815
	C12.412,5.512,12.269,5.934,11.988,6.289z"/>
</svg>
