<?xml version="1.0" encoding="utf-8"?>
<!-- Generator: Adobe Illustrator 16.0.0, SVG Export Plug-In . SVG Version: 6.00 Build 0)  -->
<!DOCTYPE svg PUBLIC "-//W3C//DTD SVG 1.1//EN" "http://www.w3.org/Graphics/SVG/1.1/DTD/svg11.dtd">
<svg version="1.1" id="Layer_1" xmlns="http://www.w3.org/2000/svg" xmlns:xlink="http://www.w3.org/1999/xlink" x="0px" y="0px"
	 width="15.979px" height="15.979px" viewBox="0 0 15.979 15.979" enable-background="new 0 0 15.979 15.979" xml:space="preserve">
<path fill-rule="evenodd" clip-rule="evenodd" d="M15.716,15.017l-0.698,0.698c-0.387,0.388-1.057,0.343-1.498-0.099l-3.035-3.038
	c-1.06,0.677-2.311,1.081-3.66,1.081C3.056,13.659,0,10.602,0,6.83C0,3.058,3.056,0,6.824,0c3.771,0,6.826,3.058,6.826,6.83
	c0,1.345-0.402,2.589-1.073,3.647l3.04,3.041C16.057,13.959,16.102,14.63,15.716,15.017L15.716,15.017z M6.781,2.825
	c-2.201,0-3.987,1.786-3.987,3.989s1.786,3.987,3.987,3.987c2.202,0,3.986-1.784,3.986-3.987S8.983,2.825,6.781,2.825L6.781,2.825z"
	/>
</svg>
