<?xml version="1.0" encoding="utf-8"?>
<!-- Generator: Adobe Illustrator 18.1.1, SVG Export Plug-In . SVG Version: 6.00 Build 0)  -->
<svg version="1.1" id="Layer_1" xmlns="http://www.w3.org/2000/svg" xmlns:xlink="http://www.w3.org/1999/xlink" x="0px" y="0px"
	 width="339.6px" height="560px" viewBox="100 32 339.6 560" enable-background="new 100 32 339.6 560" xml:space="preserve">
<g>
	<g>
		<path fill="#00B3D5" d="M230.7,151.5v28.4h-62.8h-19.7v19.7v28.4v19.7h19.7h62.8v28.4H119.7V151.5H230.7 M250.4,131.7H117.9
			c-10.1,0-17.9,7.9-17.9,17.9v145.7h150.4v-67.8h-82.6v-28.4h82.6L250.4,131.7L250.4,131.7z"/>
		<path fill="#00B3D5" d="M324,70v61.7v19.7h19.7h76.5v124.2H295.6V70H324 M323.6,247.3h19.7h28.4h19.7v-19.7v-28.4v-19.7h-19.7
			h-28.4h-19.7v19.7v28.4V247.3 M325.8,50.3h-49.9v245.2h164.1V149.7c0-10.1-7.9-17.9-17.9-17.9h-78.3V69.3
			C343.7,59.2,335.5,50.3,325.8,50.3L325.8,50.3z M343.4,227.6v-28.4h28.4v28.4H343.4L343.4,227.6z"/>
		<path fill="#00B3D5" d="M419.8,340.7v28.7h-252h-19.7v19.7v25.1V434h19.7h252v121.7H119.7v-28.4h252.4h19.7v-19.7v-25.5v-19.7
			h-19.7H119.7V340.7H419.8 M439.6,320.9H100v161.2h272.1v25.5H100v49.9c0,10.1,7.9,17.9,17.9,17.9h303.7c10.1,0,17.9-7.9,17.9-17.9
			V414.3H167.8v-25.1h271.7V320.9L439.6,320.9z"/>
	</g>
</g>
</svg>
