<?xml version="1.0" encoding="utf-8"?>
<!-- Generator: Adobe Illustrator 18.1.1, SVG Export Plug-In . SVG Version: 6.00 Build 0)  -->
<svg version="1.1" id="Layer_1" xmlns="https://www.w3.org/2000/svg" xmlns:xlink="https://www.w3.org/1999/xlink" x="0px" y="0px"
	 width="500px" height="140px" viewBox="0 0 500 140" enable-background="new 0 0 500 140" xml:space="preserve">
<image display="none" overflow="visible" width="236" height="51" xlink:href="cbs-logo-nl.gif"  transform="matrix(2.0243 0 0 2.0243 7.3888 19.5)">
</image>
<g>
	<path fill-rule="evenodd" clip-rule="evenodd" fill="#0A0C06" d="M113.2,109.5c-0.5-2.9-2.8-5.9-7.3-5.9c-5.3,0-8,3.7-8,9.1
		c0,6.8,3.9,9.6,7.7,9.6c1.4,0,6.8-0.2,7.7-7H111c-0.8,4-3.6,4.8-5.1,4.8c-4.2,0-5.7-3.2-5.7-7.4c0-4.6,2.5-7,5.7-7
		c1.5,0,4.3,0.6,5,3.7H113.2L113.2,109.5z"/>
	<path fill-rule="evenodd" clip-rule="evenodd" fill="#0A0C06" d="M124.7,117.7c0,0.9-1.4,2.5-3.4,2.5c-2.5,0-3.7-1.5-3.7-4h9.4
		c0-4.8-1.9-7.7-5.4-7.7c-4.3,0-6.3,3.3-6.3,7.3c0,3.7,2.2,6.7,5.9,6.7c2,0,2.8-0.8,3.2-1.2c1.9-0.9,2.3-2.9,2.3-3.4H124.7
		L124.7,117.7z M117.5,114.3c0-1.9,1.5-3.9,3.6-3.9c2.8,0,3.6,2,3.7,3.9H117.5L117.5,114.3z"/>
	<path fill-rule="evenodd" clip-rule="evenodd" fill="#0A0C06" d="M140,112.9c0-3.6-2.5-4.5-4.5-4.5c-2.3,0-3.6,1.7-3.9,2.2v-1.7
		h-2.2v12.8h2.2v-7c0-3.6,2.2-4.3,3.6-4.3c2,0,2.6,1.2,2.6,3.2v8h2.2V112.9L140,112.9z"/>
	<path fill-rule="evenodd" clip-rule="evenodd" fill="#0A0C06" d="M147.7,110.6v-1.7h-1.9v-3.6h-2.2v3.6H142v1.7h1.7v8.7
		c0,1.5,0.3,2.9,2.5,2.9c0.2,0,0.8-0.3,1.5-0.5v-1.7h-0.8c-0.3,0-1.1,0-1.1-1.1v-8.4H147.7L147.7,110.6z"/>
	<path fill-rule="evenodd" clip-rule="evenodd" fill="#0A0C06" d="M152.4,114.3c0-1.9,1.2-3.4,3.4-3.4h0.8v-2.2
		c-0.2-0.3-0.5-0.3-0.6-0.3c-1.5,0-2.8,1.1-3.7,2.6v-2.2h-1.9v12.8h2V114.3L152.4,114.3z"/>
	<path fill-rule="evenodd" clip-rule="evenodd" fill="#0A0C06" d="M159.8,112.8c0.2-0.9,0.5-2.5,2.8-2.5c2.2,0,3.2,0.8,3.2,2.2
		c0,1.2-0.8,1.5-1.2,1.5l-3.6,0.3c-3.6,0.5-3.9,2.9-3.9,4.2c0,2,1.5,3.9,3.9,3.9c2.6,0,4-1.4,4.8-2.3c0,0.9,0.3,2.2,2.3,2.2
		c0.3,0,0.8,0,1.1-0.5v-1.5c-0.2,0-0.6,0-0.8,0c-0.3,0-0.8-0.2-0.8-0.6v-7.4c0-3.2-3.7-3.7-4.6-3.7c-3.1,0-5.3,1.2-5.3,4.3H159.8
		L159.8,112.8z M165.5,117.3c0,1.7-1.9,3.1-3.9,3.1c-1.5,0-2.3-0.9-2.3-2.3c0-1.5,1.7-1.9,2.8-1.9c2.6-0.5,3.2-0.6,3.4-1.1V117.3
		L165.5,117.3z"/>
	<path fill-rule="evenodd" clip-rule="evenodd" fill="#0A0C06" d="M173.4,112.8c0.2-0.9,0.5-2.5,2.8-2.5c2.2,0,3.2,0.8,3.2,2.2
		c0,1.2-0.8,1.5-1.2,1.5l-3.6,0.3c-3.6,0.5-3.9,2.9-3.9,4.2c0,2,1.5,3.9,3.9,3.9c2.6,0,4-1.4,4.8-2.3c0,0.9,0.3,2.2,2.3,2.2
		c0.3,0,0.8,0,1.1-0.5v-1.5c-0.2,0-0.6,0-0.8,0c-0.3,0-0.8-0.2-0.8-0.6v-7.4c0-3.2-3.7-3.7-4.6-3.7c-3.1,0-5.3,1.2-5.3,4.3H173.4
		L173.4,112.8z M179.1,117.3c0,1.7-1.9,3.1-3.9,3.1c-1.5,0-2.3-0.9-2.3-2.3c0-1.5,1.7-1.9,2.8-1.9c2.6-0.5,3.3-0.6,3.4-1.1V117.3
		L179.1,117.3z"/>
	<polygon fill-rule="evenodd" clip-rule="evenodd" fill="#0A0C06" points="185,121.8 187.3,121.8 187.3,104.3 185,104.3 185,121.8 	
		"/>
	<path fill-rule="evenodd" clip-rule="evenodd" fill="#0A0C06" d="M200,106.1h4.2c2.6,0,3.6,1.1,3.6,2.6c0,2.2-1.4,2.9-3.6,2.9H200
		V106.1L200,106.1z M197.4,121.8h7.6c4,0,6-2.3,6-5.3c0-2.9-1.9-3.7-3.1-4.3c2-0.8,2.3-2.5,2.3-3.7c0-2.3-1.7-4.2-5-4.2h-7.9V121.8
		L197.4,121.8z M200,113.6h4.6c1.9,0,4,0.5,4,2.9c0,2-1.4,3.3-3.7,3.3h-5V113.6L200,113.6z"/>
	<path fill-rule="evenodd" clip-rule="evenodd" fill="#0A0C06" d="M224,121.8v-12.8h-2.2v7c0,2-0.9,4.3-3.7,4.3
		c-1.4,0-2.3-0.6-2.3-2.8v-8.5h-2.2v9.1c0,3.1,2.2,4.3,4.2,4.3c2.2,0,3.1-1.1,4-2.6v2H224L224,121.8z"/>
	<path fill-rule="evenodd" clip-rule="evenodd" fill="#0A0C06" d="M229.5,114.3c0-1.9,1.2-3.4,3.4-3.4h0.8v-2.2
		c-0.2-0.3-0.5-0.3-0.6-0.3c-1.5,0-2.8,1.1-3.7,2.6v-2.2h-1.9v12.8h2V114.3L229.5,114.3z"/>
	<path fill-rule="evenodd" clip-rule="evenodd" fill="#0A0C06" d="M244.1,117.7c0,0.9-1.4,2.5-3.4,2.5c-2.5,0-3.7-1.5-3.7-4h9.4
		c0-4.8-1.9-7.7-5.4-7.7c-4.3,0-6.3,3.3-6.3,7.3c0,3.7,2.2,6.7,5.9,6.7c2,0,2.8-0.8,3.2-1.2c1.9-0.9,2.3-2.9,2.3-3.4H244.1
		L244.1,117.7z M237,114.3c0-1.9,1.5-3.9,3.6-3.9c2.8,0,3.6,2,3.7,3.9H237L237,114.3z"/>
	<path fill-rule="evenodd" clip-rule="evenodd" fill="#0A0C06" d="M250.9,112.8c0.2-0.9,0.5-2.5,2.8-2.5c2.2,0,3.2,0.8,3.2,2.2
		c0,1.2-0.8,1.5-1.2,1.5l-3.6,0.3c-3.6,0.5-3.9,2.9-3.9,4.2c0,2,1.5,3.9,3.9,3.9c2.6,0,4-1.4,4.8-2.3c0,0.9,0.3,2.2,2.3,2.2
		c0.3,0,0.8,0,1.1-0.5v-1.5c-0.2,0-0.6,0-0.8,0c-0.3,0-0.8-0.2-0.8-0.6v-7.4c0-3.2-3.7-3.7-4.6-3.7c-3.1,0-5.3,1.2-5.3,4.3H250.9
		L250.9,112.8z M256.6,117.3c0,1.7-1.9,3.1-3.9,3.1c-1.5,0-2.3-0.9-2.3-2.3c0-1.5,1.7-1.9,2.8-1.9c2.6-0.5,3.2-0.6,3.4-1.1V117.3
		L256.6,117.3z"/>
	<path fill-rule="evenodd" clip-rule="evenodd" fill="#0A0C06" d="M273,121.8v-12.8h-2.2v7c0,2-0.9,4.3-3.7,4.3
		c-1.4,0-2.3-0.6-2.3-2.8v-8.5h-2.2v9.1c0,3.1,2.2,4.3,4.2,4.3c2.2,0,3.1-1.1,4-2.6v2H273L273,121.8z"/>
	<polygon fill-rule="evenodd" clip-rule="evenodd" fill="#0A0C06" points="287.4,119.4 287.4,119.4 284.2,108.9 281.5,108.9 
		286.2,121.8 288.6,121.8 293.4,108.9 291.1,108.9 287.4,119.4 	"/>
	<path fill-rule="evenodd" clip-rule="evenodd" fill="#0A0C06" d="M293.7,115.4c0,3.2,2,7,6,7c4,0,6-3.7,6-7c0-3.4-2-7-6-7
		C295.8,108.4,293.7,112,293.7,115.4L293.7,115.4z M296.1,115.4c0-1.9,0.6-5,3.7-5c3.1,0,3.7,3.1,3.7,5c0,1.7-0.6,4.8-3.7,4.8
		C296.7,120.2,296.1,117.1,296.1,115.4L296.1,115.4z"/>
	<path fill-rule="evenodd" clip-rule="evenodd" fill="#0A0C06" d="M307.4,115.4c0,3.2,2,7,6,7c4,0,6-3.7,6-7c0-3.4-2-7-6-7
		C309.4,108.4,307.4,112,307.4,115.4L307.4,115.4z M309.7,115.4c0-1.9,0.6-5,3.7-5c3.1,0,3.7,3.1,3.7,5c0,1.7-0.6,4.8-3.7,4.8
		C310.3,120.2,309.7,117.1,309.7,115.4L309.7,115.4z"/>
	<path fill-rule="evenodd" clip-rule="evenodd" fill="#0A0C06" d="M324.2,114.3c0-1.9,1.2-3.4,3.4-3.4h0.8v-2.2
		c-0.2-0.3-0.5-0.3-0.6-0.3c-1.5,0-2.8,1.1-3.7,2.6v-2.2h-1.9v12.8h2V114.3L324.2,114.3z"/>
	<path fill-rule="evenodd" clip-rule="evenodd" fill="#0A0C06" d="M347.4,104.3h-2.2v6.3c-0.5-0.5-1.5-2.2-3.9-2.2
		c-3.4,0-5.4,2.9-5.4,6.5c0,3.1,1.4,7.4,5.6,7.4c1.4,0,2.8-0.6,3.7-2.3v1.7h2.2V104.3L347.4,104.3z M338.3,115.4c0-1.9,0.2-5,3.6-5
		c3.1,0,3.4,3.2,3.4,5.4c0,3.6-2,4.3-3.4,4.3C339.5,120.2,338.3,118,338.3,115.4L338.3,115.4z"/>
	<path fill-rule="evenodd" clip-rule="evenodd" fill="#0A0C06" d="M359.2,117.7c0,0.9-1.4,2.5-3.4,2.5c-2.5,0-3.7-1.5-3.7-4h9.4
		c0-4.8-1.9-7.7-5.4-7.7c-4.3,0-6.3,3.3-6.3,7.3c0,3.7,2.2,6.7,5.9,6.7c2,0,2.8-0.8,3.3-1.2c1.9-0.9,2.3-2.9,2.3-3.4H359.2
		L359.2,117.7z M352.1,114.3c0-1.9,1.5-3.9,3.6-3.9c2.8,0,3.6,2,3.7,3.9H352.1L352.1,114.3z"/>
	<path fill-rule="evenodd" clip-rule="evenodd" fill="#0A0C06" d="M384.1,109.4c-0.3-2-0.8-5.7-7.1-5.7c-4.2,0-6,2.8-6,5.4
		c0,3.1,2.8,3.9,3.7,4.2l3.7,0.9c2.9,0.6,3.7,1.2,3.7,3.1c0,2.5-2.9,2.9-4.5,2.9c-2.3,0-4.8-0.9-4.8-4h-2.3c0,1.5,0.3,3.1,1.7,4.3
		c0.8,0.6,2.2,1.9,5.4,1.9c2.9,0,6.8-1.4,6.8-5.4c0-2.8-1.7-4.2-3.9-4.8l-5.1-1.1c-1.1-0.2-2.2-0.8-2.2-2.3c0-2.6,2.6-2.9,4.2-2.9
		c1.9,0,4.2,0.8,4.2,3.6H384.1L384.1,109.4z"/>
	<path fill-rule="evenodd" clip-rule="evenodd" fill="#0A0C06" d="M391.7,110.6v-1.7h-1.9v-3.6h-2.2v3.6h-1.7v1.7h1.7v8.7
		c0,1.5,0.3,2.9,2.5,2.9c0.2,0,0.8-0.3,1.5-0.5v-1.7h-0.8c-0.3,0-1.1,0-1.1-1.1v-8.4H391.7L391.7,110.6z"/>
	<path fill-rule="evenodd" clip-rule="evenodd" fill="#0A0C06" d="M395.8,112.8c0.2-0.9,0.5-2.5,2.8-2.5c2.2,0,3.2,0.8,3.2,2.2
		c0,1.2-0.8,1.5-1.2,1.5l-3.6,0.3c-3.6,0.5-3.9,2.9-3.9,4.2c0,2,1.5,3.9,3.9,3.9c2.6,0,4-1.4,4.8-2.3c0,0.9,0.3,2.2,2.3,2.2
		c0.3,0,0.8,0,1.1-0.5v-1.5c-0.2,0-0.6,0-0.8,0c-0.3,0-0.8-0.2-0.8-0.6v-7.4c0-3.2-3.7-3.7-4.6-3.7c-3.1,0-5.3,1.2-5.3,4.3H395.8
		L395.8,112.8z M401.6,117.3c0,1.7-1.9,3.1-3.9,3.1c-1.5,0-2.3-0.9-2.3-2.3c0-1.5,1.7-1.9,2.8-1.9c2.6-0.5,3.3-0.6,3.4-1.1V117.3
		L401.6,117.3z"/>
	<path fill-rule="evenodd" clip-rule="evenodd" fill="#0A0C06" d="M412.1,110.6v-1.7h-1.9v-3.6h-2.2v3.6h-1.7v1.7h1.7v8.7
		c0,1.5,0.3,2.9,2.5,2.9c0.2,0,0.8-0.3,1.6-0.5v-1.7h-0.8c-0.3,0-1.1,0-1.1-1.1v-8.4H412.1L412.1,110.6z"/>
	<path fill-rule="evenodd" clip-rule="evenodd" fill="#0A0C06" d="M414.3,121.8h2.3v-12.8h-2.3V121.8L414.3,121.8z M414.3,106.6h2.3
		v-2.3h-2.3V106.6L414.3,106.6z"/>
	<path fill-rule="evenodd" clip-rule="evenodd" fill="#0A0C06" d="M429,112.6c0-0.6-0.2-4.2-4.8-4.2c-2.5,0-4.8,1.4-4.8,4.2
		c0,1.7,1.1,2.8,2.8,3.1l2.6,0.6c1.9,0.6,2.5,0.9,2.5,1.9c0,1.4-1.4,2-2.9,2c-2.9,0-3.2-1.5-3.2-2.5h-2.2c0,1.5,0.5,4.6,5.4,4.6
		c2.9,0,5.1-1.9,5.1-4.5c0-1.7-0.8-2.8-3.6-3.4l-2.2-0.5c-1.7-0.5-2.3-0.6-2.3-1.9c0-1.5,2-1.7,2.6-1.7c2.6,0,2.9,1.4,3.1,2.2H429
		L429,112.6z"/>
	<path fill-rule="evenodd" clip-rule="evenodd" fill="#0A0C06" d="M436.5,110.6v-1.7h-1.9v-3.6h-2.2v3.6h-1.7v1.7h1.7v8.7
		c0,1.5,0.3,2.9,2.5,2.9c0.2,0,0.8-0.3,1.5-0.5v-1.7h-0.8c-0.3,0-1.1,0-1.1-1.1v-8.4H436.5L436.5,110.6z"/>
	<path fill-rule="evenodd" clip-rule="evenodd" fill="#0A0C06" d="M438.7,121.8h2.3v-12.8h-2.3V121.8L438.7,121.8z M438.7,106.6h2.3
		v-2.3h-2.3V106.6L438.7,106.6z"/>
	<path fill-rule="evenodd" clip-rule="evenodd" fill="#0A0C06" d="M452.9,117.7c0,0.9-1.4,2.5-3.4,2.5c-2.5,0-3.7-1.5-3.7-4h9.4
		c0-4.8-1.9-7.7-5.4-7.7c-4.3,0-6.3,3.3-6.3,7.3c0,3.7,2.2,6.7,5.9,6.7c2,0,2.8-0.8,3.3-1.2c1.9-0.9,2.3-2.9,2.3-3.4H452.9
		L452.9,117.7z M445.8,114.3c0-1.9,1.5-3.9,3.6-3.9c2.8,0,3.6,2,3.7,3.9H445.8L445.8,114.3z"/>
	<polygon fill-rule="evenodd" clip-rule="evenodd" fill="#0A0C06" points="463.1,113.7 468.2,108.9 465.5,108.9 459.9,114.3 
		459.9,104.3 457.7,104.3 457.7,121.8 459.9,121.8 459.9,117 461.6,115.4 465.8,121.8 468.4,121.8 463.1,113.7 	"/>
	<g>
		<polygon display="none" fill-rule="evenodd" clip-rule="evenodd" fill="#FFFFFF" points="7.4,39.2 7.4,67.5 35.1,67.7 35.1,57.5 
			16.9,57.5 16.7,48.7 34.6,48.7 34.6,39.8 7.4,39.2 		"/>
		<path display="none" fill-rule="evenodd" clip-rule="evenodd" fill="#FFFFFF" d="M44.3,21.1v46h28V39.4h-19V20.6L44.3,21.1
			L44.3,21.1z M53.8,48.7v9.5h9.3l-0.4-9.1L53.8,48.7L53.8,48.7z"/>
		<polygon display="none" fill-rule="evenodd" clip-rule="evenodd" fill="#FFFFFF" points="7.5,76.5 7.5,104.3 62.2,104.3 62.5,113 
			7.4,113.6 7.5,123.1 72.2,122.3 71.7,94.9 17.2,94.6 16.7,86.2 72.2,85.8 72,75.9 7.5,76.5 		"/>
		<path fill-rule="evenodd" clip-rule="evenodd" fill="#006D95" d="M72.6,124.5l1.5-1.4V94.8l-1.5-1.5H18.7v-5.7h53.9l1.5-1.5v-9.8
			l-1.5-1.5H7.4l-1.5,1.5v28.3l1.5,1.4h53.9v5.7H7.4L5.9,113v10l1.5,1.4H72.6L72.6,124.5z M9.6,78.3v24.1h53.9l1.5,1.5v10l-1.5,1.3
			H9.6v5.7h60.8V96.8H16.5l-1.3-1.3v-10l1.3-1.5h53.9v-5.7H9.6L9.6,78.3z M44.3,69.2l-1.4-1.5V21l1.4-1.5h9.9l1.5,1.5v17h17l1.5,1.4
			v28.3l-1.5,1.5H44.3L44.3,69.2z M46.5,23v42.6h23.9V41.4h-17l-1.4-1.3V23H46.5L46.5,23z M51.9,48.5l1.4-1.4h10l1.5,1.4v10
			l-1.5,1.3h-10l-1.4-1.3V48.5L51.9,48.5z M55.6,50.8h5.7v5.7h-5.7V50.8L55.6,50.8z M5.9,39.4v28.3l1.5,1.5h28.3l1.4-1.5v-9.9
			l-1.4-1.4h-17v-5.7h17l1.4-1.5v-9.9L35.7,38H7.4L5.9,39.4L5.9,39.4z M9.6,41.4v24.1h23.9v-5.7h-17l-1.3-1.5v-9.9l1.3-1.4h17v-5.7
			H9.6L9.6,41.4z"/>
	</g>
</g>
</svg>
