<?xml version="1.0" encoding="utf-8"?>
<!-- Generator: Adobe Illustrator 18.1.1, SVG Export Plug-In . SVG Version: 6.00 Build 0)  -->
<svg version="1.1" id="Layer_1" xmlns="http://www.w3.org/2000/svg" xmlns:xlink="http://www.w3.org/1999/xlink" x="0px" y="0px"
	 width="240px" height="80px" viewBox="-297.2 1437 240 80" enable-background="new -297.2 1437 240 80" xml:space="preserve">
<g id="Layer_2">
	<rect x="-535" y="1435.5" display="none" width="464" height="84"/>
	<g>
		<rect x="-282.2" y="1453.8" fill="#929497" width="7.6" height="18.9"/>
		<rect x="-282.2" y="1480.3" fill="#929497" width="7.6" height="19"/>
		<rect x="-297.3" y="1453.8" fill="#929497" width="7.6" height="45.5"/>
		<path fill="#FFFFFF" d="M-244.3,1476.6v-22.7h-7.6v22.7c0,2.1-1.7,3.8-3.8,3.8c-2.1,0-3.8-1.7-3.8-3.8v-22.7h-7.6l0,22.7
			c0,6.3,5.1,11.4,11.4,11.4C-249.4,1487.9-244.3,1482.9-244.3,1476.6L-244.3,1476.6"/>
		<polyline fill="#929497" points="-222.9,1472.7 -222.9,1464.6 -226,1464.6 -226,1472.7 -229.1,1472.7 -229.1,1453.8 -226,1453.8 
			-226,1461.6 -222.9,1461.6 -222.9,1453.8 -219.8,1453.8 -219.8,1472.7 -222.9,1472.7 		"/>
		<path fill="#929497" d="M-211.8,1472.9c-2.6,0-4.7-1.6-4.7-4.6v-10c0-3.2,2.1-4.7,4.7-4.7c2.6,0,4.7,1.6,4.7,4.6v10
			C-207.1,1471.4-209.2,1472.9-211.8,1472.9 M-210.2,1458.2c0-1-0.6-1.7-1.6-1.7c-1,0-1.6,0.6-1.6,1.7v10.2c0,1,0.6,1.6,1.6,1.6
			c1,0,1.6-0.6,1.6-1.6V1458.2z"/>
		<path fill="#929497" d="M-199.2,1472.9c-2.6,0-4.7-1.6-4.7-4.6v-10c0-3.2,2.1-4.7,4.7-4.7s4.7,1.6,4.7,4.6v1.4h-3.1v-1.4
			c0-1-0.6-1.7-1.6-1.7c-1,0-1.6,0.6-1.6,1.7v10.2c0,1,0.6,1.6,1.6,1.6c1,0,1.6-0.6,1.6-1.6v-3.5h-1.8v-2.8h4.9v6.2
			C-194.5,1471.4-196.6,1472.9-199.2,1472.9"/>
		<polyline fill="#929497" points="-191.2,1472.7 -191.2,1453.8 -182.8,1453.8 -182.8,1456.7 -188.1,1456.7 -188.1,1461.6 
			-183.6,1461.6 -183.6,1464.6 -188.1,1464.6 -188.1,1469.8 -182.8,1469.8 -182.8,1472.7 -191.2,1472.7 		"/>
		<path fill="#929497" d="M-175.6,1472.9c-2.6,0-4.7-1.8-4.7-4.3v-1.3h3.1v1c0,1.1,0.7,1.6,1.6,1.6c0.9,0,1.6-0.6,1.6-1.6v-0.7
			c0-0.9-0.2-1.5-1-2.1l-3.7-3.1c-0.6-0.5-1.6-1.8-1.6-3.5v-0.9c0-2.6,1.9-4.5,4.7-4.5c2.8,0,4.7,1.8,4.7,4.5v1.3h-3.2v-1.3
			c0-0.9-0.6-1.6-1.6-1.6c-0.8,0-1.6,0.6-1.6,1.6v0.6c0,0.9,0.3,1.3,0.9,1.8l3.7,3.1c1.2,1,1.7,1.9,1.7,3.5v1.5
			C-170.8,1471.1-172.9,1472.9-175.6,1472.9"/>
		<path fill="#929497" d="M-163.3,1472.9c-2.6,0-4.7-1.6-4.7-4.6v-10c0-3.2,2.1-4.7,4.7-4.7c2.6,0,4.7,1.6,4.7,4.6v2.1h-3.1v-2.1
			c0-1-0.6-1.7-1.6-1.7c-1,0-1.6,0.6-1.6,1.7v10.2c0,1,0.6,1.6,1.6,1.6c1,0,1.6-0.6,1.6-1.6v-2.3h3.1v2.2
			C-158.6,1471.4-160.7,1472.9-163.3,1472.9"/>
		<polyline fill="#929497" points="-149.1,1472.7 -149.1,1464.6 -152.2,1464.6 -152.2,1472.7 -155.3,1472.7 -155.3,1453.8 
			-152.2,1453.8 -152.2,1461.6 -149.1,1461.6 -149.1,1453.8 -145.9,1453.8 -145.9,1472.7 -149.1,1472.7 		"/>
		<path fill="#929497" d="M-138,1472.9c-2.6,0-4.7-1.6-4.7-4.6v-10c0-3.2,2.1-4.7,4.7-4.7c2.6,0,4.7,1.6,4.7,4.6v10
			C-133.3,1471.4-135.4,1472.9-138,1472.9 M-136.4,1458.2c0-1-0.6-1.7-1.6-1.7c-1,0-1.6,0.6-1.6,1.7v10.2c0,1,0.6,1.6,1.6,1.6
			c1,0,1.6-0.6,1.6-1.6V1458.2z"/>
		<path fill="#929497" d="M-125.4,1472.9c-2.6,0-4.7-1.6-4.7-4.6v-10c0-3.2,2.1-4.7,4.7-4.7c2.6,0,4.7,1.6,4.7,4.6v10
			C-120.7,1471.4-122.8,1472.9-125.4,1472.9 M-123.8,1458.2c0-1-0.6-1.7-1.6-1.7c-1,0-1.6,0.6-1.6,1.7v10.2c0,1,0.6,1.6,1.6,1.6
			c1,0,1.6-0.6,1.6-1.6V1458.2z"/>
		<polyline fill="#929497" points="-117.4,1472.7 -117.4,1453.8 -114.3,1453.8 -114.3,1469.8 -109,1469.8 -109,1472.7 
			-117.4,1472.7 		"/>
		<path fill="#FFFFFF" d="M-224.5,1499.6c-2.6,0-4.7-1.6-4.7-4.6v-14.5h3.1v14.5c0,1,0.6,1.6,1.5,1.6c1,0,1.6-0.6,1.6-1.6v-14.5h3.1
			v14.4C-219.8,1498-221.8,1499.6-224.5,1499.6"/>
		<polyline fill="#FFFFFF" points="-211,1483.2 -211,1499.4 -214.2,1499.4 -214.2,1483.2 -217.7,1483.2 -217.7,1480.4 
			-207.5,1480.4 -207.5,1483.2 -211,1483.2 		"/>
		<path fill="#FFFFFF" d="M-199.2,1499.4v-5.9c0-1.4-0.3-2.1-1.7-2.1h-1.5v8h-3.1v-18.9h4.8c3,0,4.6,1.8,4.6,4.8v1.3
			c0,1.6-0.5,2.7-1.6,3.3c1.1,0.6,1.6,1.6,1.6,3.3v6.1L-199.2,1499.4 M-199.2,1485.4c0-1.3-0.3-2.1-1.7-2.1h-1.5v5.2h1.5
			c1.3,0,1.7-0.8,1.7-2.1V1485.4z"/>
		<polyline fill="#FFFFFF" points="-192.8,1499.4 -192.8,1480.4 -184.4,1480.4 -184.4,1483.3 -189.7,1483.3 -189.7,1488.3 
			-185.2,1488.3 -185.2,1491.2 -189.7,1491.2 -189.7,1496.5 -184.4,1496.5 -184.4,1499.4 -192.8,1499.4 		"/>
		<path fill="#FFFFFF" d="M-176.6,1499.6c-2.6,0-4.7-1.6-4.7-4.6v-10c0-3.2,2.1-4.7,4.7-4.7s4.7,1.6,4.7,4.6v2.1h-3.1v-2.1
			c0-1-0.6-1.7-1.6-1.7c-1,0-1.6,0.6-1.6,1.7v10.2c0,1,0.6,1.6,1.6,1.6c1,0,1.6-0.6,1.6-1.6v-2.3h3.1v2.2
			C-171.9,1498-174,1499.6-176.6,1499.6"/>
		<polyline fill="#FFFFFF" points="-162.4,1499.4 -162.4,1491.2 -165.5,1491.2 -165.5,1499.4 -168.6,1499.4 -168.6,1480.4 
			-165.5,1480.4 -165.5,1488.3 -162.4,1488.3 -162.4,1480.4 -159.3,1480.4 -159.3,1499.4 -162.4,1499.4 		"/>
		<polyline fill="#FFFFFF" points="-150.5,1483.2 -150.5,1499.4 -153.7,1499.4 -153.7,1483.2 -157.2,1483.2 -157.2,1480.4 
			-147,1480.4 -147,1483.2 -150.5,1483.2 		"/>
	</g>
</g>
</svg>
