<?xml version="1.0" encoding="utf-8"?>
<!-- Generator: Adobe Illustrator 18.1.1, SVG Export Plug-In . SVG Version: 6.00 Build 0)  -->
<svg version="1.1"
	 id="svg2985" xmlns:rdf="http://www.w3.org/1999/02/22-rdf-syntax-ns#" xmlns:cc="http://creativecommons.org/ns#" xmlns:dc="http://purl.org/dc/elements/1.1/" xmlns:svg="http://www.w3.org/2000/svg"
	 xmlns="http://www.w3.org/2000/svg" xmlns:xlink="http://www.w3.org/1999/xlink" x="0px" y="0px" viewBox="19 307 650 180"
	 enable-background="new 19 307 650 180" xml:space="preserve">
<g>
	<g>
		<g>
			<g>
				<rect x="72.5" y="308.9" fill="#1A9FD9" width="25.9" height="64.8"/>
				<rect x="72.5" y="399.7" fill="#1A9FD9" width="25.9" height="64.9"/>
			</g>
			<rect x="20.6" y="308.9" fill="#1A9FD9" width="25.9" height="155.6"/>
		</g>
		<path fill="#E62F2B" d="M202.2,386.8v-77.8h-25.9v77.8c0,7.2-5.8,13-13,13c-7.2,0-13-5.8-13-13v-77.8h-25.9l0,77.8
			c0,21.5,17.4,38.9,38.9,38.9S202.2,408.3,202.2,386.8L202.2,386.8z"/>
	</g>
</g>
<g>
	<g enable-background="new    ">
		<path fill="#1A9FD9" d="M261.1,335.9c-3.6,0-6.4-2.3-6.4-6.4v-20.1h4.3v20.1c0,1.5,0.8,2.3,2,2.3s2.3-0.8,2.3-2.3v-20.1h4.3v20.1
			C267.7,333.9,264.7,335.9,261.1,335.9z"/>
		<path fill="#1A9FD9" d="M282.5,335.7l-6.1-16.3v16.3h-4.1v-26.2h3.8l6.1,16.5v-16.5h4.1v26.2H282.5z"/>
		<path fill="#1A9FD9" d="M290.9,335.7v-26.2h4.3v26.2H290.9z"/>
		<path fill="#1A9FD9" d="M309,334.9l-0.5,0.8h-4.8l-0.5-0.8c-1.8-3.3-3.6-7.1-3.6-13v-12.7h4.3v12c0,4.1,0.8,7.6,2,10.2
			c1.3-2.8,2.3-6.1,2.3-10.2v-12h4.3v12.7C312.5,327.8,310.8,331.6,309,334.9z"/>
		<path fill="#1A9FD9" d="M316.9,335.7v-26.2h11.5v4.1h-7.4v6.9h6.1v4.1h-6.1v7.4h7.4v4.1h-11.5V335.7z"/>
		<path fill="#1A9FD9" d="M341.3,335.7v-8.1c0-1.8-0.5-2.8-2.3-2.8h-2v10.9h-4.3v-26.2h6.6c4.1,0,6.4,2.5,6.4,6.6v1.8
			c0,2.3-0.8,3.8-2,4.6c1.5,0.8,2,2.3,2,4.6v8.4h-4.3V335.7z M341.3,316.3c0-1.8-0.5-2.8-2.3-2.8h-2v7.1h2c1.8,0,2.3-1,2.3-3.1
			V316.3z"/>
		<path fill="#1A9FD9" d="M355.8,335.9c-3.6,0-6.4-2.5-6.4-6.1V328h4.3v1.5c0,1.5,1,2.3,2.3,2.3c1.3,0,2-0.8,2-2.3v-1
			c0-1.3-0.3-2-1.3-2.8l-5.1-4.3c-0.8-0.8-2.3-2.5-2.3-4.8v-1.3c0-3.6,2.5-6.4,6.4-6.4c3.8,0,6.4,2.5,6.4,6.4v1.8h-4.3v-1.8
			c0-1.3-0.8-2.3-2-2.3s-2.3,0.8-2.3,2.3v0.8c0,1.3,0.5,1.8,1.3,2.5l5.1,4.3c1.5,1.3,2.3,2.8,2.3,4.8v2
			C362.2,333.4,359.4,335.9,355.8,335.9z"/>
		<path fill="#1A9FD9" d="M366.3,335.7v-26.2h4.3v26.2H366.3z"/>
		<path fill="#1A9FD9" d="M382.3,313.2v22.4H378v-22.4h-4.8v-3.8h14v3.8H382.3z"/>
		<path fill="#1A9FD9" d="M398.3,326l-0.5,0.8v8.9h-4.3v-8.9L393,326c-1.8-3.3-3.8-6.6-3.8-12.5v-4.3h4.3v3.8c0,4.1,1,7.1,2.3,9.7
			c1.3-2.5,2-5.3,2-9.7v-3.8h4.3v4.3C402.2,319.4,400.4,322.7,398.3,326z"/>
	</g>
	<g enable-background="new    ">
		<path fill="#1A9FD9" d="M261.1,378.9c-3.6,0-6.4-2.3-6.4-6.4v-14c0-4.3,2.8-6.6,6.4-6.6s6.4,2.3,6.4,6.4v14
			C267.5,376.6,264.7,378.9,261.1,378.9z M263.2,358.3c0-1.5-0.8-2.3-2-2.3s-2,0.8-2,2.3v14c0,1.5,0.8,2.3,2,2.3s2-0.8,2-2.3V358.3z
			"/>
		<path fill="#1A9FD9" d="M276.4,356.3v6.9h6.1v4.1h-6.1v11.5h-4.3v-26.2h11.5v4.1h-7.1V356.3z"/>
		<path fill="#1A9FD9" d="M304.1,378.7v-11.5h-4.3v11.5h-4.3v-20.1c0-4.3,2.8-6.6,6.4-6.6c3.6,0,6.4,2.3,6.4,6.4v20.1h-4.1V378.7z
			 M304.1,358.3c0-1.5-0.8-2.3-2.3-2.3c-1.3,0-2,0.8-2,2.3v4.8h4.3L304.1,358.3L304.1,358.3z"/>
		<path fill="#1A9FD9" d="M319.7,367.5h-2.3v10.9h-4.3v-26.2h6.6c4.1,0,6.4,2.5,6.4,6.6v1.8C326,365.2,323.7,367.5,319.7,367.5z
			 M321.7,359.1c0-1.8-0.5-2.8-2.3-2.8h-2v7.1h2c1.8,0,2.3-1,2.3-3.1V359.1z"/>
		<path fill="#1A9FD9" d="M336,367.5h-2.3v10.9h-4.3v-26.2h6.6c4.1,0,6.4,2.5,6.4,6.6v1.8C342.3,365.2,340,367.5,336,367.5z
			 M338,359.1c0-1.8-0.5-2.8-2.3-2.8h-2v7.1h2c1.8,0,2.3-1,2.3-3.1L338,359.1L338,359.1z"/>
		<path fill="#1A9FD9" d="M345.6,378.7v-26.2h4.3v22.4h7.4v4.1h-11.7V378.7z"/>
		<path fill="#1A9FD9" d="M360.7,378.7v-26.2h4.3v26.2H360.7z"/>
		<path fill="#1A9FD9" d="M369.6,378.7v-26.2H381v4.1h-7.4v6.9h6.1v4.1h-6.1v7.4h7.4v4.1h-11.5V378.7z"/>
		<path fill="#1A9FD9" d="M392,378.7h-6.6v-26.2h6.6c4.1,0,6.4,2.5,6.4,6.6v13C398.1,376.1,396,378.7,392,378.7z M394,359.1
			c0-1.8-0.5-2.8-2.3-2.8h-2v18.3h2c1.8,0,2.3-1,2.3-3.1L394,359.1L394,359.1z"/>
	</g>
	<g enable-background="new    ">
		<path fill="#1A9FD9" d="M260.4,421.7c-3.6,0-6.4-2.5-6.4-6.1v-1.8h4.3v1.5c0,1.5,1,2.3,2.3,2.3s2-0.8,2-2.3v-0.8
			c0-1.3-0.3-2-1.3-2.8l-5.1-4.3c-0.8-0.8-2.3-2.5-2.3-4.8v-1.3c0-3.6,2.5-6.4,6.4-6.4s6.4,2.5,6.4,6.4v1.8h-4.3v-1.8
			c0-1.3-0.8-2.3-2-2.3s-2.3,0.8-2.3,2.3v0.8c0,1.3,0.5,1.8,1.3,2.5l5.1,4.3c1.5,1.3,2.3,2.8,2.3,4.8v2
			C266.7,419.2,263.9,421.7,260.4,421.7z"/>
		<path fill="#1A9FD9" d="M277.2,421.7c-3.6,0-6.4-2.3-6.4-6.4v-14c0-4.3,2.8-6.6,6.4-6.6s6.4,2.3,6.4,6.4v2.8h-4.3v-2.8
			c0-1.5-0.8-2.3-2-2.3s-2,0.8-2,2.3v14c0,1.5,0.8,2.3,2,2.3s2-0.8,2-2.3v-3.3h4.3v3.1C283.5,419.7,280.7,421.7,277.2,421.7z"/>
		<path fill="#1A9FD9" d="M288.1,421.4v-26.2h4.3v26.2H288.1z"/>
		<path fill="#1A9FD9" d="M297,421.4v-26.2h11.5v4.1h-7.4v6.9h6.1v4.1h-6.1v7.4h7.4v4.1H297V421.4z"/>
		<path fill="#1A9FD9" d="M323,421.4l-6.1-16.3v16.3h-4.1v-26.2h3.8l6.1,16.5v-16.5h4.1v26.2H323z"/>
		<path fill="#1A9FD9" d="M337.7,421.7c-3.6,0-6.4-2.3-6.4-6.4v-14c0-4.3,2.8-6.6,6.4-6.6s6.4,2.3,6.4,6.4v2.8h-4.3v-2.8
			c0-1.5-0.8-2.3-2-2.3s-2,0.8-2,2.3v14c0,1.5,0.8,2.3,2,2.3s2-0.8,2-2.3v-3.3h4.3v3.1C344.1,419.7,341.3,421.7,337.7,421.7z"/>
		<path fill="#1A9FD9" d="M348.7,421.4v-26.2h11.5v4.1h-7.4v6.9h6.1v4.1h-6.1v7.4h7.4v4.1h-11.5V421.4z"/>
		<path fill="#1A9FD9" d="M370.1,421.7c-3.6,0-6.4-2.5-6.4-6.1v-1.8h4.3v1.5c0,1.5,1,2.3,2.3,2.3s2-0.8,2-2.3v-0.8
			c0-1.3-0.3-2-1.3-2.8l-5.1-4.3c-0.8-0.8-2.3-2.5-2.3-4.8v-1.3c0-3.6,2.5-6.4,6.4-6.4c3.8,0,6.4,2.5,6.4,6.4v1.8h-4.3v-1.8
			c0-1.3-0.8-2.3-2-2.3s-2.3,0.8-2.3,2.3v0.8c0,1.3,0.5,1.8,1.3,2.5l5.1,4.3c1.5,1.3,2.3,2.8,2.3,4.8v2
			C376.4,419.2,373.6,421.7,370.1,421.7z"/>
	</g>
	<g>
		<path fill="#E62F2B" d="M261.1,464.7c-3.6,0-6.4-2.3-6.4-6.4v-20.1h4.3v20.1c0,1.5,0.8,2.3,2,2.3s2.3-0.8,2.3-2.3v-20.1h4.3v20.1
			C267.7,462.4,264.7,464.7,261.1,464.7z"/>
		<path fill="#E62F2B" d="M279.7,442.1v22.4h-4.3v-22.4h-4.8v-3.8h14v3.8H279.7z"/>
		<path fill="#E62F2B" d="M295.7,464.5v-8.1c0-1.8-0.5-2.8-2.3-2.8h-2v10.9h-4.3v-26.2h6.6c4.1,0,6.4,2.5,6.4,6.6v1.8
			c0,2.3-0.8,3.8-2,4.6c1.5,0.8,2,2.3,2,4.6v8.4h-4.3V464.5z M295.7,445.1c0-1.8-0.5-2.8-2.3-2.8h-2v7.1h2c1.8,0,2.3-1,2.3-3.1
			V445.1z"/>
		<path fill="#E62F2B" d="M304.4,464.5v-26.2h11.5v4.1h-7.4v6.9h6.1v4.1h-6.1v7.4h7.4v4.1h-11.5V464.5z"/>
		<path fill="#E62F2B" d="M326.5,464.7c-3.6,0-6.4-2.3-6.4-6.4v-14c0-4.3,2.8-6.6,6.4-6.6s6.4,2.3,6.4,6.4v2.8h-4.3v-2.8
			c0-1.5-0.8-2.3-2-2.3s-2,0.8-2,2.3v14c0,1.5,0.8,2.3,2,2.3s2-0.8,2-2.3v-3.3h4.3v3.1C333.2,462.4,330.1,464.7,326.5,464.7z"/>
		<path fill="#E62F2B" d="M346.1,464.5V453h-4.3v11.5h-4.3v-26.2h4.3v10.9h4.3v-10.9h4.3v26.2H346.1z"/>
		<path fill="#E62F2B" d="M362.4,442.1v22.4h-4.3v-22.4h-4.8v-3.8h14v3.8H362.4z"/>
	</g>
</g>
</svg>
