<?xml version="1.0" encoding="utf-8"?>
<!-- Generator: Adobe Illustrator 18.1.1, SVG Export Plug-In . SVG Version: 6.00 Build 0)  -->
<svg version="1.1" id="Layer_1" xmlns="http://www.w3.org/2000/svg" xmlns:xlink="http://www.w3.org/1999/xlink" x="0px" y="0px"
	 width="500px" height="140px" viewBox="0 0 500 140" enable-background="new 0 0 500 140" xml:space="preserve">
<g>
	<path fill="#E2231A" d="M194.8,49.9v-1.7c4.3-3,7.2-5.1,8-9.4c0.3-1.7-0.2-3.8-1.6-5.7c-4-5.1-13.1-7.9-21.2-9.3
		c-39.9-7-77.9,7.7-80.8,9l0-1.1c3.4-2,46.8-19.8,88.6-12.4c8.1,1.4,15.6,3.8,19.8,9c1.6,2.1,2.2,4.3,1.8,6.5
		C208.3,40.4,200.7,46.6,194.8,49.9L194.8,49.9L194.8,49.9z"/>
	<path fill-rule="evenodd" clip-rule="evenodd" fill="#E2231A" d="M214.6,48.7c-13,0-22.5,9.6-22.5,22.8c0,12.9,9.5,22.6,22.2,22.6
		c13.3,0,23-9.6,23-22.7C237.3,58.4,227.6,48.7,214.6,48.7L214.6,48.7L214.6,48.7z M214.8,54.7c9.2,0,16.3,7.3,16.3,16.6
		c0,9.7-7.1,16.9-16.5,16.9c-9.3,0-16.4-7.1-16.4-16.7C198.3,61.7,205.2,54.7,214.8,54.7L214.8,54.7L214.8,54.7z"/>
	<polygon fill-rule="evenodd" clip-rule="evenodd" fill="#1D1D1B" points="116,49.3 110.2,49.3 110.2,83.6 81.8,49.3 77,49.3 
		77,93.5 82.6,93.5 82.6,59.5 110.8,93.5 116,93.5 116,49.3 116,49.3 	"/>
	<path fill="#1D1D1B" d="M179.1,65.6c-6,10.6-28.3,32.3-28.3,32.3h-2.2c7.2-12.5,9.8-32.4,10.4-32.9l-0.1-0.3c0,0-4.8,9.5-15,19.9
		c-9.9,10.1-13.8,13.3-13.8,13.3h-2.4c7.6-14.3,12.4-30.2,12.4-38.3c0-2.3-0.3-3.8-1.6-3.8c-2.9,0-6.1,5.1-7.8,8.8h-2.4
		c3.3-7.3,11.2-16.8,15.9-16.8c2.7,0,3.7,3.3,3.7,6.2c0,15-10.6,34.4-11.4,35.2c0,0.3,0.4,0.2,0.4,0.2c0.5-2,8.9-9.3,15.9-20
		c6.9-10.6,12.2-22.2,12.7-22.2c0.2-0.2,1.2,1.9,1.2,6.8c0,17-8.2,33.3-10,35.3c0,0.2,0.1,0.2,0.3,0.2c0.7-1.7,8-8.9,12.6-14.9
		c1.7-2.2,8.7-11.5,8.1-19.7c0,0,0.9-2,4.2-5.2c0,0,2.2-2.2,3.5-2.2c0.7,0,0.7,1.6,0.7,1.6C186,54.4,180.5,63.1,179.1,65.6
		L179.1,65.6L179.1,65.6z"/>
	<polygon fill="#1D1D1B" points="6.9,108 9.2,108 14.4,117.5 14.5,117.5 14.5,108 16.2,108 16.2,119.8 14,119.8 8.6,110.1 
		8.6,110.1 8.6,119.8 6.9,119.8 6.9,108 	"/>
	<path fill="#1D1D1B" d="M25.8,119.5c-0.6,0.2-1.3,0.6-2.7,0.6c-3.1,0-4.5-1.9-4.5-4.7c0-2.6,1.6-4.4,4.1-4.4c2.9,0,3.8,2.1,3.8,4.9
		h-6.2c0,1.7,1.3,2.9,2.9,2.9c1.1,0,2.3-0.5,2.7-0.9V119.5L25.8,119.5z M24.8,114.7c0-1.3-0.8-2.4-2.2-2.4c-1.6,0-2.2,1.3-2.3,2.4
		H24.8L24.8,114.7z"/>
	<path fill="#1D1D1B" d="M34.9,118.6L34.9,118.6c-0.5,0.6-1.4,1.4-3,1.4c-2.6,0-3.7-2.3-3.7-4.7c0-2.3,1.2-4.4,3.7-4.4
		c1.5,0,2.4,0.6,2.9,1.4h0v-5.3h1.6v12.7h-1.5V118.6L34.9,118.6z M32.3,118.7c1.8,0,2.5-1.8,2.5-3.2c0-1.6-0.8-3.3-2.6-3.3
		c-1.7,0-2.4,1.6-2.4,3.2C29.9,116.8,30.6,118.7,32.3,118.7L32.3,118.7z"/>
	<path fill="#1D1D1B" d="M46,119.5c-0.6,0.2-1.3,0.6-2.7,0.6c-3.1,0-4.5-1.9-4.5-4.7c0-2.6,1.6-4.4,4.1-4.4c2.9,0,3.8,2.1,3.8,4.9
		h-6.2c0,1.7,1.3,2.9,2.9,2.9c1.1,0,2.3-0.5,2.7-0.9V119.5L46,119.5z M45,114.7c0-1.3-0.8-2.4-2.2-2.4c-1.6,0-2.2,1.3-2.3,2.4H45
		L45,114.7z"/>
	<path fill="#1D1D1B" d="M49,111.2h1.5v1.3h0c0.4-0.9,1.3-1.5,2.3-1.5c0.5,0,0.7,0.1,1.1,0.1v1.4c-0.3-0.1-0.6-0.2-0.9-0.2
		c-1.4,0-2.4,1.4-2.4,3.5v3.9H49V111.2L49,111.2z"/>
	<polygon fill="#1D1D1B" points="56,107.1 57.6,107.1 57.6,119.8 56,119.8 56,107.1 	"/>
	<path fill="#1D1D1B" d="M61.1,111.8c0.8-0.5,1.7-0.8,2.9-0.8c2.5,0,3.5,1.2,3.5,3.6v3.6c0,1,0,1.4,0.1,1.7H66v-1.1h0
		c-0.4,0.5-1.2,1.3-2.7,1.3c-1.9,0-3.2-0.8-3.2-2.7c0-2.2,2.4-2.9,4-2.9c0.6,0,1.1,0,1.7,0c0-1.5-0.5-2.3-2.1-2.3
		c-0.9,0-1.9,0.3-2.5,0.9L61.1,111.8L61.1,111.8z M65.8,115.7c-0.3,0-0.7,0-1,0c-0.9,0-3,0.1-3,1.7c0,0.9,0.9,1.4,1.6,1.4
		c1.6,0,2.4-1,2.4-2.3V115.7L65.8,115.7z"/>
	<path fill="#1D1D1B" d="M70.3,111.2h1.5v1.4h0c0.5-1,1.6-1.6,2.8-1.6c2.2,0,3.2,1.4,3.2,3.7v5.1h-1.6v-4.5c0-2-0.4-3-1.8-3.1
		c-1.8,0-2.6,1.5-2.6,3.6v4h-1.6V111.2L70.3,111.2z"/>
	<path fill="#1D1D1B" d="M87,118.6L87,118.6c-0.5,0.6-1.4,1.4-3,1.4c-2.6,0-3.7-2.3-3.7-4.7c0-2.3,1.2-4.4,3.7-4.4
		c1.5,0,2.4,0.6,2.9,1.4h0v-5.3h1.6v12.7H87V118.6L87,118.6z M84.3,118.7c1.8,0,2.5-1.8,2.5-3.2c0-1.6-0.8-3.3-2.6-3.3
		c-1.7,0-2.4,1.6-2.4,3.2C81.9,116.8,82.6,118.7,84.3,118.7L84.3,118.7z"/>
	<path fill="#1D1D1B" d="M90.7,118.1c0.6,0.4,1.5,0.6,2,0.6c0.7,0,1.6-0.3,1.6-1.2c0-1.6-3.8-1.4-3.8-3.9c0-1.8,1.3-2.7,3.1-2.7
		c0.7,0,1.4,0.2,2,0.3l-0.1,1.4c-0.4-0.2-1.3-0.4-1.7-0.4c-0.8,0-1.5,0.3-1.5,1.1c0,1.8,3.8,1.3,3.8,4c0,1.9-1.5,2.7-3,2.7
		c-0.8,0-1.6-0.1-2.4-0.5L90.7,118.1L90.7,118.1z"/>
	<path fill="#1D1D1B" d="M104.8,119.5c-0.6,0.2-1.3,0.6-2.7,0.6c-3.1,0-4.5-1.9-4.5-4.7c0-2.6,1.6-4.4,4.1-4.4
		c2.9,0,3.8,2.1,3.8,4.9h-6.2c0,1.7,1.3,2.9,2.9,2.9c1.1,0,2.3-0.5,2.7-0.9V119.5L104.8,119.5z M103.8,114.7c0-1.3-0.8-2.4-2.2-2.4
		c-1.6,0-2.2,1.3-2.3,2.4H103.8L103.8,114.7z"/>
	<path fill="#1D1D1B" d="M117.3,107.8c3.6,0,5.7,2.6,5.7,6.1c0,3.6-2.1,6.1-5.7,6.1c-3.6,0-5.7-2.5-5.7-6.1
		C111.5,110.4,113.6,107.8,117.3,107.8L117.3,107.8z M117.3,118.5c2.7,0,3.9-2.3,3.9-4.6c0-2.4-1.3-4.7-3.9-4.6
		c-2.6,0-3.9,2.2-3.9,4.6C113.3,116.3,114.5,118.5,117.3,118.5L117.3,118.5z"/>
	<path fill="#1D1D1B" d="M125.4,111.2h1.5v1.3h0c0.4-0.9,1.3-1.5,2.3-1.5c0.5,0,0.7,0.1,1.1,0.1v1.4c-0.3-0.1-0.6-0.2-0.9-0.2
		c-1.4,0-2.4,1.4-2.4,3.5v3.9h-1.6V111.2L125.4,111.2z"/>
	<path fill="#1D1D1B" d="M139.8,119.5c0,2.6-1.4,4.1-4.5,4.1c-0.9,0-1.7-0.1-3.1-0.6l0.2-1.5c1.2,0.6,2,0.8,3.1,0.8
		c1.7,0,2.7-1.1,2.7-3v-0.8h0c-0.7,0.9-1.8,1.3-2.9,1.3c-2.5,0-3.7-2-3.7-4.3c0-2.2,1.3-4.6,3.9-4.6c1.5,0,2.4,0.6,2.9,1.5h0v-1.3
		h1.5V119.5L139.8,119.5z M138.2,115.6c0-1.8-0.8-3.3-2.5-3.3c-1.6,0-2.4,1.8-2.4,3.2c0,1.6,0.9,3.1,2.4,3.1
		C137.2,118.5,138.2,117.2,138.2,115.6L138.2,115.6z"/>
	<path fill="#1D1D1B" d="M143.1,111.8c0.8-0.5,1.7-0.8,2.9-0.8c2.5,0,3.5,1.2,3.5,3.6v3.6c0,1,0,1.4,0.1,1.7H148v-1.1h0
		c-0.4,0.5-1.2,1.3-2.7,1.3c-1.9,0-3.2-0.8-3.2-2.7c0-2.2,2.4-2.9,4-2.9c0.6,0,1.1,0,1.7,0c0-1.5-0.5-2.3-2.1-2.3
		c-0.9,0-1.9,0.3-2.5,0.9L143.1,111.8L143.1,111.8z M147.9,115.7c-0.3,0-0.7,0-1,0c-0.9,0-3,0.1-3,1.7c0,0.9,0.9,1.4,1.6,1.4
		c1.6,0,2.4-1,2.4-2.3V115.7L147.9,115.7z"/>
	<path fill="#1D1D1B" d="M152.3,111.2h1.5v1.4h0c0.5-1,1.6-1.6,2.8-1.6c2.2,0,3.2,1.4,3.2,3.7v5.1h-1.6v-4.5c0-2-0.4-3-1.8-3.1
		c-1.8,0-2.6,1.5-2.6,3.6v4h-1.6V111.2L152.3,111.2z"/>
	<path fill="#1D1D1B" d="M164.8,107.4H163v1.8h1.8V107.4L164.8,107.4z M163.1,119.8h1.6v-8.7h-1.6V119.8L163.1,119.8z"/>
	<path fill="#1D1D1B" d="M167.1,118.1c0.6,0.4,1.5,0.6,2,0.6c0.7,0,1.6-0.3,1.6-1.2c0-1.6-3.8-1.4-3.8-3.9c0-1.8,1.3-2.7,3.1-2.7
		c0.7,0,1.4,0.2,2,0.3l-0.1,1.4c-0.4-0.2-1.3-0.4-1.7-0.4c-0.8,0-1.5,0.3-1.5,1.1c0,1.8,3.8,1.3,3.8,4c0,1.9-1.5,2.7-3,2.7
		c-0.8,0-1.6-0.1-2.4-0.5L167.1,118.1L167.1,118.1z"/>
	<path fill="#1D1D1B" d="M175,111.8c0.8-0.5,1.7-0.8,2.9-0.8c2.5,0,3.5,1.2,3.5,3.6v3.6c0,1,0,1.4,0.1,1.7h-1.5v-1.1h0
		c-0.4,0.5-1.2,1.3-2.7,1.3c-1.9,0-3.2-0.8-3.2-2.7c0-2.2,2.4-2.9,4-2.9c0.6,0,1.1,0,1.7,0c0-1.5-0.5-2.3-2.1-2.3
		c-0.9,0-1.9,0.3-2.5,0.9L175,111.8L175,111.8z M179.7,115.7c-0.3,0-0.7,0-1,0c-0.9,0-3,0.1-3,1.7c0,0.9,0.9,1.4,1.6,1.4
		c1.6,0,2.4-1,2.4-2.3V115.7L179.7,115.7z"/>
	<path fill="#1D1D1B" d="M188.8,112.5h-2.3v4.7c0,1,0.6,1.5,1.3,1.5c0.5,0,0.8-0.2,1.1-0.3v1.4c-0.4,0.1-0.8,0.2-1.4,0.2
		c-1.6,0-2.7-0.8-2.7-2.5v-5.1h-2v-1.3h2v-2l1.6-0.5v2.5h2.3V112.5L188.8,112.5z"/>
	<path fill="#1D1D1B" d="M192.9,109.2h-1.8v-1.8h1.8V109.2L192.9,109.2z M191.2,111.2h1.6v8.7h-1.6V111.2L191.2,111.2z"/>
	<path fill="#1D1D1B" d="M202.5,119.5c-0.6,0.2-1.3,0.6-2.7,0.6c-3.1,0-4.5-1.9-4.5-4.7c0-2.6,1.6-4.4,4.1-4.4
		c2.9,0,3.8,2.1,3.8,4.9H197c0,1.7,1.3,2.9,2.9,2.9c1.1,0,2.3-0.5,2.7-0.9V119.5L202.5,119.5z M201.5,114.7c0-1.3-0.8-2.4-2.2-2.4
		c-1.6,0-2.2,1.3-2.3,2.4H201.5L201.5,114.7z"/>
	<polygon fill="#1D1D1B" points="213.5,119.8 211.6,119.8 208.5,111.2 210.3,111.2 212.6,118.2 212.7,118.2 215.1,111.2 
		216.7,111.2 213.5,119.8 	"/>
	<path fill="#1D1D1B" d="M222.2,111c2.6,0,4.4,1.9,4.4,4.5c0,2.5-1.8,4.5-4.4,4.5c-2.6,0-4.4-2.1-4.4-4.5
		C217.8,112.9,219.6,111,222.2,111L222.2,111z M222.2,118.7c1.9,0,2.7-1.7,2.7-3.2c0-1.6-1-3.2-2.7-3.2c-1.7,0-2.7,1.6-2.7,3.2
		C219.5,117,220.3,118.7,222.2,118.7L222.2,118.7z"/>
	<path fill="#1D1D1B" d="M232.8,111c2.6,0,4.4,1.9,4.4,4.5c0,2.5-1.8,4.5-4.4,4.5c-2.6,0-4.4-2.1-4.4-4.5
		C228.3,112.9,230.1,111,232.8,111L232.8,111z M232.8,118.7c1.9,0,2.7-1.7,2.7-3.2c0-1.6-1-3.2-2.7-3.2c-1.7,0-2.7,1.6-2.7,3.2
		C230,117,230.9,118.7,232.8,118.7L232.8,118.7z"/>
	<path fill="#1D1D1B" d="M239.5,111.2h1.5v1.3h0c0.4-0.9,1.3-1.5,2.3-1.5c0.5,0,0.7,0.1,1.1,0.1v1.4c-0.3-0.1-0.6-0.2-0.9-0.2
		c-1.4,0-2.4,1.4-2.4,3.5v3.9h-1.6V111.2L239.5,111.2z"/>
	<polygon fill="#1D1D1B" points="249.2,108 251,108 253.9,118.1 253.9,118.1 256.4,108 258.8,108 261.4,118.1 261.4,118.1 
		264.3,108 266.1,108 262.4,119.8 260.2,119.8 257.7,109.5 257.6,109.5 255,119.8 252.7,119.8 249.2,108 	"/>
	<path fill="#1D1D1B" d="M273.8,119.5c-0.6,0.2-1.3,0.6-2.7,0.6c-3.1,0-4.5-1.9-4.5-4.7c0-2.6,1.6-4.4,4.1-4.4
		c2.9,0,3.8,2.1,3.8,4.9h-6.2c0,1.7,1.3,2.9,2.9,2.9c1.1,0,2.3-0.5,2.7-0.9V119.5L273.8,119.5z M272.7,114.7c0-1.3-0.8-2.4-2.2-2.4
		c-1.6,0-2.2,1.3-2.3,2.4H272.7L272.7,114.7z"/>
	<path fill="#1D1D1B" d="M281.4,112.5h-2.3v4.7c0,1,0.6,1.5,1.3,1.5c0.5,0,0.8-0.2,1.1-0.3v1.4c-0.4,0.1-0.8,0.2-1.4,0.2
		c-1.6,0-2.7-0.8-2.7-2.5v-5.1h-2v-1.3h2v-2l1.6-0.5v2.5h2.3V112.5L281.4,112.5z"/>
	<path fill="#1D1D1B" d="M290.2,119.5c-0.6,0.2-1.3,0.6-2.7,0.6c-3.1,0-4.5-1.9-4.5-4.7c0-2.6,1.6-4.4,4.1-4.4
		c2.9,0,3.8,2.1,3.8,4.9h-6.2c0,1.7,1.3,2.9,2.9,2.9c1.1,0,2.3-0.5,2.7-0.9V119.5L290.2,119.5z M289.1,114.7c0-1.3-0.8-2.4-2.2-2.4
		c-1.6,0-2.2,1.3-2.3,2.4H289.1L289.1,114.7z"/>
	<path fill="#1D1D1B" d="M293.2,111.2h1.5v1.4h0c0.5-1,1.6-1.6,2.8-1.6c2.2,0,3.2,1.4,3.2,3.7v5.1h-1.6v-4.5c0-2-0.4-3-1.8-3.1
		c-1.8,0-2.6,1.5-2.6,3.6v4h-1.6V111.2L293.2,111.2z"/>
	<path fill="#1D1D1B" d="M303.1,118.1c0.6,0.4,1.5,0.6,2,0.6c0.7,0,1.6-0.3,1.6-1.2c0-1.6-3.8-1.4-3.8-3.9c0-1.8,1.3-2.7,3.1-2.7
		c0.7,0,1.4,0.2,2,0.3l-0.1,1.4c-0.4-0.2-1.3-0.4-1.7-0.4c-0.8,0-1.5,0.3-1.5,1.1c0,1.8,3.8,1.3,3.8,4c0,1.9-1.5,2.7-3,2.7
		c-0.8,0-1.6-0.1-2.4-0.5L303.1,118.1L303.1,118.1z"/>
	<path fill="#1D1D1B" d="M316,112.6c-0.6-0.3-1.2-0.4-1.7-0.4c-1.8,0-2.8,1.6-2.8,3.2c0,1.5,0.8,3.2,2.9,3.2c0.5,0,1.2-0.2,1.7-0.5
		l0.1,1.4c-0.7,0.3-1.4,0.4-2,0.4c-2.6,0-4.4-2.1-4.4-4.5c0-2.6,1.8-4.5,4.4-4.5c0.6,0,1.5,0.2,1.9,0.3L316,112.6L316,112.6z"/>
	<path fill="#1D1D1B" d="M318.2,107.1h1.6v5.3h0c0.6-0.9,1.6-1.4,2.8-1.4c2.2,0,3.2,1.4,3.2,3.7v5.1h-1.6v-4.5c0-2-0.4-3-1.8-3.1
		c-1.8,0-2.6,1.5-2.6,3.6v4h-1.6V107.1L318.2,107.1z"/>
	<path fill="#1D1D1B" d="M329.2,111.8c0.8-0.5,1.8-0.8,2.9-0.8c2.5,0,3.5,1.2,3.5,3.6v3.6c0,1,0,1.4,0.1,1.7h-1.5v-1.1h0
		c-0.4,0.5-1.2,1.3-2.7,1.3c-1.9,0-3.2-0.8-3.2-2.7c0-2.2,2.4-2.9,4-2.9c0.6,0,1.1,0,1.7,0c0-1.5-0.5-2.3-2.1-2.3
		c-0.9,0-1.9,0.3-2.5,0.9L329.2,111.8L329.2,111.8z M333.9,115.7c-0.3,0-0.7,0-1,0c-0.9,0-3,0.1-3,1.7c0,0.9,0.9,1.4,1.6,1.4
		c1.6,0,2.4-1,2.4-2.3V115.7L333.9,115.7z"/>
	<path fill="#1D1D1B" d="M338.4,111.2h1.5v1.2h0c0.4-0.6,1.4-1.4,2.9-1.4c2.5,0,3.7,2.1,3.7,4.4c0,2.4-1.1,4.7-3.7,4.7
		c-1.5,0-2.4-0.6-2.9-1.4h0v4.8h-1.6V111.2L338.4,111.2z M342.5,112.2c-1.7,0-2.6,1.6-2.6,3.3c0,1.4,0.7,3.2,2.5,3.2
		c1.7,0,2.4-1.9,2.4-3.3C344.9,113.9,344.3,112.2,342.5,112.2L342.5,112.2z"/>
	<path fill="#1D1D1B" d="M348.9,111.2h1.5v1.2h0c0.4-0.6,1.4-1.4,2.9-1.4c2.5,0,3.7,2.1,3.7,4.4c0,2.4-1.1,4.7-3.7,4.7
		c-1.5,0-2.4-0.6-2.9-1.4h0v4.8h-1.6V111.2L348.9,111.2z M353.1,112.2c-1.7,0-2.6,1.6-2.6,3.3c0,1.4,0.7,3.2,2.5,3.2
		c1.7,0,2.4-1.9,2.4-3.3C355.5,113.9,354.8,112.2,353.1,112.2L353.1,112.2z"/>
	<path fill="#1D1D1B" d="M366.1,119.5c-0.6,0.2-1.3,0.6-2.7,0.6c-3.1,0-4.5-1.9-4.5-4.7c0-2.6,1.6-4.4,4.1-4.4
		c2.9,0,3.8,2.1,3.8,4.9h-6.2c0,1.7,1.3,2.9,2.9,2.9c1.1,0,2.3-0.5,2.7-0.9V119.5L366.1,119.5z M365.1,114.7c0-1.3-0.8-2.4-2.2-2.4
		c-1.6,0-2.2,1.3-2.3,2.4H365.1L365.1,114.7z"/>
	<polygon fill="#1D1D1B" points="369.3,107.1 370.9,107.1 370.9,119.8 369.3,119.8 369.3,107.1 	"/>
	<path fill="#1D1D1B" d="M375.9,109.2h-1.8v-1.8h1.8V109.2L375.9,109.2z M374.2,111.2h1.6v8.7h-1.6V111.2L374.2,111.2z"/>
	<path fill="#1D1D1B" d="M377.3,122.2c0.2,0,0.3,0.1,0.6,0.1c0.7,0,1.1-0.7,1.1-1.8v-9.2h1.6v9c0,1.3-0.1,3.5-2.4,3.5
		c-0.3,0-0.8,0-1-0.1L377.3,122.2L377.3,122.2z M380.8,109.2H379v-1.8h1.8V109.2L380.8,109.2z"/>
	<polygon fill="#1D1D1B" points="383.8,107.1 385.4,107.1 385.4,114.7 388.9,111.2 391,111.2 387,115 391.5,119.8 389.2,119.8 
		385.4,115.4 385.4,119.8 383.8,119.8 383.8,107.1 	"/>
	<path fill="#1D1D1B" d="M402.9,107.8c3.6,0,5.7,2.6,5.7,6.1c0,3.6-2.1,6.1-5.7,6.1c-3.6,0-5.7-2.5-5.7-6.1
		C397.2,110.4,399.3,107.8,402.9,107.8L402.9,107.8z M402.9,118.5c2.7,0,3.9-2.3,3.9-4.6c0-2.4-1.3-4.7-3.9-4.6
		c-2.6,0-3.9,2.2-3.9,4.6C399,116.3,400.1,118.5,402.9,118.5L402.9,118.5z"/>
	<path fill="#1D1D1B" d="M411,111.2h1.5v1.4h0c0.5-1,1.6-1.6,2.8-1.6c2.2,0,3.2,1.4,3.2,3.7v5.1h-1.6v-4.5c0-2-0.4-3-1.8-3.1
		c-1.8,0-2.6,1.5-2.6,3.6v4H411V111.2L411,111.2z"/>
	<path fill="#1D1D1B" d="M427.7,118.6L427.7,118.6c-0.5,0.6-1.4,1.4-3,1.4c-2.6,0-3.7-2.3-3.7-4.7c0-2.3,1.2-4.4,3.7-4.4
		c1.5,0,2.4,0.6,2.9,1.4h0v-5.3h1.6v12.7h-1.5V118.6L427.7,118.6z M425.1,118.7c1.8,0,2.5-1.8,2.5-3.2c0-1.6-0.8-3.3-2.6-3.3
		c-1.7,0-2.4,1.6-2.4,3.2C422.7,116.8,423.4,118.7,425.1,118.7L425.1,118.7z"/>
	<path fill="#1D1D1B" d="M438.8,119.5c-0.6,0.2-1.3,0.6-2.7,0.6c-3.1,0-4.5-1.9-4.5-4.7c0-2.6,1.6-4.4,4.1-4.4
		c2.9,0,3.8,2.1,3.8,4.9h-6.2c0,1.7,1.3,2.9,2.9,2.9c1.1,0,2.3-0.5,2.7-0.9V119.5L438.8,119.5z M437.7,114.7c0-1.3-0.8-2.4-2.2-2.4
		c-1.6,0-2.2,1.3-2.3,2.4H437.7L437.7,114.7z"/>
	<path fill="#1D1D1B" d="M441.7,111.2h1.5v1.3h0c0.4-0.9,1.3-1.5,2.3-1.5c0.5,0,0.7,0.1,1.1,0.1v1.4c-0.3-0.1-0.6-0.2-0.9-0.2
		c-1.4,0-2.4,1.4-2.4,3.5v3.9h-1.6V111.2L441.7,111.2z"/>
	<polygon fill="#1D1D1B" points="447.9,118.4 452.9,112.5 448.1,112.5 448.1,111.2 454.7,111.2 454.7,112.6 449.7,118.5 
		454.9,118.5 454.9,119.8 447.9,119.8 447.9,118.4 	"/>
	<path fill="#1D1D1B" d="M461,111c2.6,0,4.4,1.9,4.4,4.5c0,2.5-1.8,4.5-4.4,4.5c-2.6,0-4.4-2.1-4.4-4.5
		C456.6,112.9,458.4,111,461,111L461,111z M461,118.7c1.9,0,2.7-1.7,2.7-3.2c0-1.6-1-3.2-2.7-3.2c-1.7,0-2.7,1.6-2.7,3.2
		C458.3,117,459.1,118.7,461,118.7L461,118.7z"/>
	<path fill="#1D1D1B" d="M474.4,119.5c-0.6,0.2-1.3,0.6-2.7,0.6c-3.1,0-4.5-1.9-4.5-4.7c0-2.6,1.6-4.4,4.1-4.4
		c2.9,0,3.8,2.1,3.8,4.9h-6.2c0,1.7,1.3,2.9,2.9,2.9c1.1,0,2.3-0.5,2.7-0.9V119.5L474.4,119.5z M473.3,114.7c0-1.3-0.8-2.4-2.2-2.4
		c-1.6,0-2.2,1.3-2.3,2.4H473.3L473.3,114.7z"/>
	<polygon fill="#1D1D1B" points="477.3,107.1 478.9,107.1 478.9,114.7 482.4,111.2 484.6,111.2 480.6,115 485.1,119.8 482.8,119.8 
		478.9,115.4 478.9,119.8 477.3,119.8 477.3,107.1 	"/>
</g>
</svg>
