<?xml version="1.0" encoding="utf-8"?>
<!-- Generator: Adobe Illustrator 18.1.1, SVG Export Plug-In . SVG Version: 6.00 Build 0)  -->
<svg version="1.1" id="Laag_1" xmlns="http://www.w3.org/2000/svg" xmlns:xlink="http://www.w3.org/1999/xlink" x="0px" y="0px"
	 width="311.8px" height="95px" viewBox="0 0 311.8 95" enable-background="new 0 0 311.8 95" xml:space="preserve">
<g>
	<g>
		<path d="M88.2,34.6h1.6l3.7,6.7h0v-6.7h1.2V43h-1.5l-3.8-6.9h0V43h-1.2V34.6z"/>
		<path d="M101.5,42.8c-0.4,0.2-0.9,0.4-1.9,0.4c-2.2,0-3.2-1.3-3.2-3.3c0-1.8,1.1-3.1,2.9-3.1c2,0,2.7,1.5,2.7,3.5h-4.4
			c0,1.2,0.9,2,2,2c0.7,0,1.6-0.4,1.9-0.6V42.8z M100.8,39.4c0-0.9-0.6-1.7-1.5-1.7c-1.1,0-1.6,0.9-1.6,1.7H100.8z"/>
		<path d="M108,42.2L108,42.2c-0.3,0.5-1,1-2.1,1c-1.8,0-2.6-1.6-2.6-3.3c0-1.6,0.9-3.1,2.6-3.1c1.1,0,1.7,0.4,2,1h0V34h1.1v9H108
			V42.2z M106.1,42.3c1.3,0,1.8-1.3,1.8-2.3c0-1.1-0.6-2.3-1.8-2.3c-1.2,0-1.7,1.2-1.7,2.3C104.4,40.9,104.9,42.3,106.1,42.3z"/>
		<path d="M115.8,42.8c-0.4,0.2-0.9,0.4-1.9,0.4c-2.2,0-3.2-1.3-3.2-3.3c0-1.8,1.1-3.1,2.9-3.1c2,0,2.7,1.5,2.7,3.5h-4.4
			c0,1.2,0.9,2,2,2c0.7,0,1.6-0.4,1.9-0.6V42.8z M115,39.4c0-0.9-0.6-1.7-1.5-1.7c-1.1,0-1.6,0.9-1.6,1.7H115z"/>
		<path d="M117.9,36.9h1.1v0.9h0c0.3-0.6,0.9-1.1,1.6-1.1c0.3,0,0.5,0,0.7,0.1v1c-0.2-0.1-0.4-0.1-0.6-0.1c-1,0-1.7,1-1.7,2.5V43
			h-1.1V36.9z"/>
		<path d="M122.8,34h1.1v9h-1.1V34z"/>
		<path d="M126.4,37.3c0.6-0.3,1.2-0.6,2-0.6c1.8,0,2.5,0.9,2.5,2.5v2.5c0,0.7,0,1,0,1.2h-1.1v-0.8h0c-0.3,0.4-0.9,0.9-1.9,0.9
			c-1.3,0-2.2-0.6-2.2-1.9c0-1.5,1.7-2,2.8-2c0.4,0,0.8,0,1.2,0c0-1.1-0.4-1.6-1.5-1.6c-0.6,0-1.3,0.2-1.8,0.6L126.4,37.3z
			 M129.8,40.1c-0.2,0-0.5,0-0.7,0c-0.6,0-2.1,0.1-2.1,1.2c0,0.6,0.6,1,1.1,1c1.1,0,1.7-0.7,1.7-1.6V40.1z"/>
		<path d="M132.9,36.9h1.1v1h0c0.3-0.7,1.2-1.1,2-1.1c1.6,0,2.3,1,2.3,2.6V43h-1.1v-3.2c0-1.4-0.3-2.1-1.3-2.2c-1.3,0-1.9,1-1.9,2.5
			V43h-1.1V36.9z"/>
		<path d="M144.7,42.2L144.7,42.2c-0.3,0.5-1,1-2.1,1c-1.8,0-2.6-1.6-2.6-3.3c0-1.6,0.9-3.1,2.6-3.1c1.1,0,1.7,0.4,2,1h0V34h1.1v9
			h-1.1V42.2z M142.8,42.3c1.3,0,1.8-1.3,1.8-2.3c0-1.1-0.6-2.3-1.8-2.3c-1.2,0-1.7,1.2-1.7,2.3C141.1,40.9,141.6,42.3,142.8,42.3z"
			/>
		<path d="M147.4,41.8c0.4,0.3,1.1,0.4,1.4,0.4c0.5,0,1.2-0.2,1.2-0.9c0-1.1-2.7-1-2.7-2.7c0-1.3,0.9-1.9,2.2-1.9
			c0.5,0,1,0.1,1.4,0.2l-0.1,1c-0.3-0.2-0.9-0.3-1.2-0.3c-0.6,0-1.1,0.2-1.1,0.7c0,1.2,2.7,0.9,2.7,2.8c0,1.3-1,1.9-2.1,1.9
			c-0.6,0-1.2-0.1-1.7-0.3L147.4,41.8z"/>
		<path d="M157.3,42.8c-0.4,0.2-0.9,0.4-1.9,0.4c-2.2,0-3.2-1.3-3.2-3.3c0-1.8,1.1-3.1,2.9-3.1c2,0,2.7,1.5,2.7,3.5h-4.4
			c0,1.2,0.9,2,2,2c0.7,0,1.6-0.4,1.9-0.6V42.8z M156.6,39.4c0-0.9-0.6-1.7-1.5-1.7c-1.1,0-1.6,0.9-1.6,1.7H156.6z"/>
		<path d="M166.6,34.5c2.5,0,4,1.8,4,4.3c0,2.5-1.5,4.3-4,4.3c-2.6,0-4-1.8-4-4.3C162.5,36.4,164,34.5,166.6,34.5z M166.6,42.1
			c1.9,0,2.8-1.6,2.8-3.3c0-1.7-0.9-3.3-2.8-3.3c-1.8,0-2.8,1.6-2.8,3.3C163.8,40.5,164.6,42.1,166.6,42.1z"/>
		<path d="M172.3,36.9h1.1v0.9h0c0.3-0.6,0.9-1.1,1.6-1.1c0.3,0,0.5,0,0.7,0.1v1c-0.2-0.1-0.4-0.1-0.6-0.1c-1,0-1.7,1-1.7,2.5V43
			h-1.1V36.9z"/>
		<path d="M182.5,42.8c0,1.9-1,2.9-3.2,2.9c-0.6,0-1.2-0.1-2.2-0.4l0.1-1c0.9,0.4,1.4,0.6,2.2,0.6c1.2,0,1.9-0.8,1.9-2.1v-0.6h0
			c-0.5,0.6-1.3,0.9-2.1,0.9c-1.8,0-2.6-1.4-2.6-3c0-1.6,0.9-3.2,2.7-3.2c1.1,0,1.7,0.4,2,1.1h0v-0.9h1V42.8z M181.4,40
			c0-1.3-0.6-2.4-1.8-2.4c-1.1,0-1.7,1.2-1.7,2.3c0,1.2,0.6,2.2,1.7,2.2C180.6,42.1,181.4,41.2,181.4,40z"/>
		<path d="M184.8,37.3c0.6-0.3,1.2-0.6,2-0.6c1.8,0,2.5,0.9,2.5,2.5v2.5c0,0.7,0,1,0,1.2h-1.1v-0.8h0c-0.3,0.4-0.9,0.9-1.9,0.9
			c-1.3,0-2.2-0.6-2.2-1.9c0-1.5,1.7-2,2.8-2c0.4,0,0.8,0,1.2,0c0-1.1-0.4-1.6-1.5-1.6c-0.6,0-1.3,0.2-1.8,0.6L184.8,37.3z
			 M188.2,40.1c-0.2,0-0.5,0-0.7,0c-0.6,0-2.1,0.1-2.1,1.2c0,0.6,0.6,1,1.1,1c1.1,0,1.7-0.7,1.7-1.6V40.1z"/>
		<path d="M191.3,36.9h1.1v1h0c0.3-0.7,1.2-1.1,2-1.1c1.6,0,2.3,1,2.3,2.6V43h-1.1v-3.2c0-1.4-0.3-2.1-1.3-2.2c-1.3,0-1.9,1-1.9,2.5
			V43h-1.1V36.9z"/>
		<path d="M200.1,35.5h-1.3v-1.3h1.3V35.5z M198.9,36.9h1.1V43h-1.1V36.9z"/>
		<path d="M201.8,41.8c0.4,0.3,1.1,0.4,1.4,0.4c0.5,0,1.2-0.2,1.2-0.9c0-1.1-2.7-1-2.7-2.7c0-1.3,0.9-1.9,2.2-1.9
			c0.5,0,1,0.1,1.4,0.2l-0.1,1c-0.3-0.2-0.9-0.3-1.2-0.3c-0.6,0-1.1,0.2-1.1,0.7c0,1.2,2.7,0.9,2.7,2.8c0,1.3-1,1.9-2.1,1.9
			c-0.6,0-1.2-0.1-1.7-0.3L201.8,41.8z"/>
		<path d="M207.3,37.3c0.6-0.3,1.2-0.6,2-0.6c1.8,0,2.5,0.9,2.5,2.5v2.5c0,0.7,0,1,0,1.2h-1.1v-0.8h0c-0.3,0.4-0.9,0.9-1.9,0.9
			c-1.3,0-2.2-0.6-2.2-1.9c0-1.5,1.7-2,2.8-2c0.4,0,0.8,0,1.2,0c0-1.1-0.4-1.6-1.5-1.6c-0.6,0-1.3,0.2-1.8,0.6L207.3,37.3z
			 M210.7,40.1c-0.2,0-0.5,0-0.7,0c-0.6,0-2.1,0.1-2.1,1.2c0,0.6,0.6,1,1.1,1c1.1,0,1.7-0.7,1.7-1.6V40.1z"/>
		<path d="M217.1,37.8h-1.6v3.3c0,0.7,0.4,1.1,0.9,1.1c0.3,0,0.6-0.1,0.8-0.2v1c-0.3,0.1-0.6,0.2-1,0.2c-1.2,0-1.9-0.6-1.9-1.8v-3.6
			H213v-0.9h1.4v-1.4l1.1-0.4v1.8h1.6V37.8z"/>
		<path d="M220,35.5h-1.3v-1.3h1.3V35.5z M218.8,36.9h1.1V43h-1.1V36.9z"/>
		<path d="M226.8,42.8c-0.4,0.2-0.9,0.4-1.9,0.4c-2.2,0-3.2-1.3-3.2-3.3c0-1.8,1.1-3.1,2.9-3.1c2,0,2.7,1.5,2.7,3.5h-4.4
			c0,1.2,0.9,2,2,2c0.7,0,1.6-0.4,1.9-0.6V42.8z M226,39.4c0-0.9-0.6-1.7-1.5-1.7c-1.1,0-1.6,0.9-1.6,1.7H226z"/>
		<path d="M90.8,60.2h-1.3l-2.2-6.1h1.2l1.7,5h0l1.7-5H93L90.8,60.2z"/>
		<path d="M96.9,54c1.9,0,3.1,1.3,3.1,3.2c0,1.8-1.3,3.2-3.1,3.2c-1.8,0-3.1-1.5-3.1-3.2C93.8,55.3,95,54,96.9,54z M96.9,59.5
			c1.3,0,1.9-1.2,1.9-2.3c0-1.2-0.7-2.3-1.9-2.3c-1.2,0-1.9,1.1-1.9,2.3C95,58.3,95.6,59.5,96.9,59.5z"/>
		<path d="M104.3,54c1.9,0,3.1,1.3,3.1,3.2c0,1.8-1.3,3.2-3.1,3.2c-1.8,0-3.1-1.5-3.1-3.2C101.2,55.3,102.5,54,104.3,54z
			 M104.3,59.5c1.3,0,1.9-1.2,1.9-2.3c0-1.2-0.7-2.3-1.9-2.3c-1.2,0-1.9,1.1-1.9,2.3C102.4,58.3,103,59.5,104.3,59.5z"/>
		<path d="M109.1,54.1h1.1v0.9h0c0.3-0.6,0.9-1.1,1.6-1.1c0.3,0,0.5,0,0.7,0.1v1c-0.2-0.1-0.4-0.1-0.6-0.1c-1,0-1.7,1-1.7,2.5v2.8
			h-1.1V54.1z"/>
		<path d="M116.4,51.9h1.3l2,7.2h0l1.8-7.2h1.7L125,59h0l2-7.2h1.3l-2.6,8.4h-1.5l-1.8-7.3h0l-1.8,7.3h-1.6L116.4,51.9z"/>
		<path d="M133.8,60c-0.4,0.2-0.9,0.4-1.9,0.4c-2.2,0-3.2-1.3-3.2-3.3c0-1.8,1.1-3.1,2.9-3.1c2,0,2.7,1.5,2.7,3.5h-4.4
			c0,1.2,0.9,2,2,2c0.7,0,1.6-0.4,1.9-0.6V60z M133,56.6c0-0.9-0.6-1.7-1.5-1.7c-1.1,0-1.6,0.9-1.6,1.7H133z"/>
		<path d="M139.1,55h-1.6v3.3c0,0.7,0.4,1.1,0.9,1.1c0.3,0,0.6-0.1,0.8-0.2v1c-0.3,0.1-0.6,0.2-1,0.2c-1.2,0-1.9-0.6-1.9-1.8V55H135
			v-0.9h1.4v-1.4l1.1-0.4v1.8h1.6V55z"/>
		<path d="M145.4,60c-0.4,0.2-0.9,0.4-1.9,0.4c-2.2,0-3.2-1.3-3.2-3.3c0-1.8,1.1-3.1,2.9-3.1c2,0,2.7,1.5,2.7,3.5h-4.4
			c0,1.2,0.9,2,2,2c0.7,0,1.6-0.4,1.9-0.6V60z M144.6,56.6c0-0.9-0.6-1.7-1.5-1.7c-1.1,0-1.6,0.9-1.6,1.7H144.6z"/>
		<path d="M147.5,54.1h1.1v1h0c0.3-0.7,1.2-1.1,2-1.1c1.6,0,2.3,1,2.3,2.6v3.6h-1.1v-3.2c0-1.4-0.3-2.1-1.3-2.2
			c-1.3,0-1.9,1-1.9,2.5v2.8h-1.1V54.1z"/>
		<path d="M154.5,59c0.4,0.3,1.1,0.4,1.4,0.4c0.5,0,1.2-0.2,1.2-0.9c0-1.1-2.7-1-2.7-2.7c0-1.3,0.9-1.9,2.2-1.9c0.5,0,1,0.1,1.4,0.2
			l-0.1,1c-0.3-0.2-0.9-0.3-1.2-0.3c-0.6,0-1.1,0.2-1.1,0.7c0,1.2,2.7,0.9,2.7,2.8c0,1.3-1,1.9-2.1,1.9c-0.6,0-1.2-0.1-1.7-0.3
			L154.5,59z"/>
		<path d="M163.6,55.2c-0.4-0.2-0.9-0.3-1.2-0.3c-1.3,0-2,1.1-2,2.3c0,1.1,0.6,2.3,2,2.3c0.4,0,0.9-0.1,1.2-0.3l0.1,1
			c-0.5,0.2-1,0.3-1.4,0.3c-1.8,0-3.1-1.5-3.1-3.2c0-1.9,1.2-3.2,3.1-3.2c0.5,0,1,0.1,1.4,0.2L163.6,55.2z"/>
		<path d="M165.1,51.2h1.1V55h0c0.4-0.6,1.1-1,2-1c1.6,0,2.3,1,2.3,2.6v3.6h-1.1v-3.2c0-1.4-0.3-2.1-1.3-2.2c-1.3,0-1.9,1-1.9,2.5
			v2.8h-1.1V51.2z"/>
		<path d="M172.9,54.6c0.6-0.3,1.2-0.6,2-0.6c1.8,0,2.5,0.9,2.5,2.5V59c0,0.7,0,1,0,1.2h-1.1v-0.8h0c-0.3,0.4-0.9,0.9-1.9,0.9
			c-1.3,0-2.2-0.6-2.2-1.9c0-1.5,1.7-2,2.8-2c0.4,0,0.8,0,1.2,0c0-1.1-0.4-1.6-1.5-1.6c-0.6,0-1.3,0.2-1.8,0.6L172.9,54.6z
			 M176.2,57.3c-0.2,0-0.5,0-0.7,0c-0.6,0-2.1,0.1-2.1,1.2c0,0.6,0.6,1,1.1,1c1.1,0,1.7-0.7,1.7-1.6V57.3z"/>
		<path d="M179.4,54.1h1.1V55h0c0.3-0.5,1-1,2.1-1c1.8,0,2.6,1.5,2.6,3.1c0,1.7-0.8,3.3-2.6,3.3c-1.1,0-1.7-0.4-2-1h0v3.4h-1.1V54.1
			z M182.3,54.9c-1.2,0-1.8,1.2-1.8,2.3c0,1,0.5,2.3,1.8,2.3c1.2,0,1.7-1.4,1.7-2.3C184,56.1,183.6,54.9,182.3,54.9z"/>
		<path d="M186.8,54.1h1.1V55h0c0.3-0.5,1-1,2.1-1c1.8,0,2.6,1.5,2.6,3.1c0,1.7-0.8,3.3-2.6,3.3c-1.1,0-1.7-0.4-2-1h0v3.4h-1.1V54.1
			z M189.8,54.9c-1.2,0-1.8,1.2-1.8,2.3c0,1,0.5,2.3,1.8,2.3c1.2,0,1.7-1.4,1.7-2.3C191.5,56.1,191,54.9,189.8,54.9z"/>
		<path d="M199,60c-0.4,0.2-0.9,0.4-1.9,0.4c-2.2,0-3.2-1.3-3.2-3.3c0-1.8,1.1-3.1,2.9-3.1c2,0,2.7,1.5,2.7,3.5h-4.4
			c0,1.2,0.9,2,2,2c0.7,0,1.6-0.4,1.9-0.6V60z M198.3,56.6c0-0.9-0.6-1.7-1.5-1.7c-1.1,0-1.6,0.9-1.6,1.7H198.3z"/>
		<path d="M201.2,51.2h1.1v9h-1.1V51.2z"/>
		<path d="M205.9,52.8h-1.3v-1.3h1.3V52.8z M204.7,54.1h1.1v6.1h-1.1V54.1z"/>
		<path d="M206.9,61.9c0.1,0,0.2,0,0.5,0c0.5,0,0.8-0.5,0.8-1.3v-6.5h1.1v6.3c0,0.9,0,2.4-1.7,2.4c-0.2,0-0.5,0-0.7,0L206.9,61.9z
			 M209.3,52.8h-1.3v-1.3h1.3V52.8z"/>
		<path d="M211.5,51.2h1.1v5.4l2.5-2.5h1.5l-2.8,2.7l3.2,3.4h-1.6l-2.7-3.1v3.1h-1.1V51.2z"/>
		<path d="M225.4,51.7c2.5,0,4,1.8,4,4.3c0,2.5-1.5,4.3-4,4.3c-2.6,0-4-1.8-4-4.3C221.4,53.6,222.9,51.7,225.4,51.7z M225.4,59.3
			c1.9,0,2.8-1.6,2.8-3.3c0-1.7-0.9-3.3-2.8-3.3c-1.8,0-2.8,1.6-2.8,3.3C222.7,57.7,223.5,59.3,225.4,59.3z"/>
		<path d="M231.2,54.1h1.1v1h0c0.3-0.7,1.2-1.1,2-1.1c1.6,0,2.3,1,2.3,2.6v3.6h-1.1v-3.2c0-1.4-0.3-2.1-1.3-2.2
			c-1.3,0-1.9,1-1.9,2.5v2.8h-1.1V54.1z"/>
		<path d="M242.9,59.4L242.9,59.4c-0.3,0.5-1,1-2.1,1c-1.8,0-2.6-1.6-2.6-3.3c0-1.6,0.9-3.1,2.6-3.1c1.1,0,1.7,0.4,2,1h0v-3.7h1.1v9
			h-1.1V59.4z M241.1,59.5c1.3,0,1.8-1.3,1.8-2.3c0-1.1-0.6-2.3-1.8-2.3c-1.2,0-1.7,1.2-1.7,2.3C239.4,58.1,239.9,59.5,241.1,59.5z"
			/>
		<path d="M250.8,60c-0.4,0.2-0.9,0.4-1.9,0.4c-2.2,0-3.2-1.3-3.2-3.3c0-1.8,1.1-3.1,2.9-3.1c2,0,2.7,1.5,2.7,3.5h-4.4
			c0,1.2,0.9,2,2,2c0.7,0,1.6-0.4,1.9-0.6V60z M250,56.6c0-0.9-0.6-1.7-1.5-1.7c-1.1,0-1.6,0.9-1.6,1.7H250z"/>
		<path d="M252.9,54.1h1.1v0.9h0c0.3-0.6,0.9-1.1,1.6-1.1c0.3,0,0.5,0,0.7,0.1v1c-0.2-0.1-0.4-0.1-0.6-0.1c-1,0-1.7,1-1.7,2.5v2.8
			h-1.1V54.1z"/>
		<path d="M257.2,59.3l3.5-4.2h-3.4v-0.9h4.7v1l-3.5,4.2h3.7v0.9h-5V59.3z"/>
		<path d="M266.5,54c1.9,0,3.1,1.3,3.1,3.2c0,1.8-1.3,3.2-3.1,3.2c-1.8,0-3.1-1.5-3.1-3.2C263.4,55.3,264.6,54,266.5,54z
			 M266.5,59.5c1.3,0,1.9-1.2,1.9-2.3c0-1.2-0.7-2.3-1.9-2.3c-1.2,0-1.9,1.1-1.9,2.3C264.6,58.3,265.1,59.5,266.5,59.5z"/>
		<path d="M275.9,60c-0.4,0.2-0.9,0.4-1.9,0.4c-2.2,0-3.2-1.3-3.2-3.3c0-1.8,1.1-3.1,2.9-3.1c2,0,2.7,1.5,2.7,3.5H272
			c0,1.2,0.9,2,2,2c0.7,0,1.6-0.4,1.9-0.6V60z M275.2,56.6c0-0.9-0.6-1.7-1.5-1.7c-1.1,0-1.6,0.9-1.6,1.7H275.2z"/>
		<path d="M278,51.2h1.1v5.4l2.5-2.5h1.5l-2.8,2.7l3.2,3.4h-1.6l-2.7-3.1v3.1H278V51.2z"/>
	</g>
</g>
<g>
	<g>
		<path fill="#E30613" d="M50.6,42.4v-0.7c1.9-1.3,3.1-2.2,3.4-4.1c0.1-0.7-0.1-1.6-0.7-2.4c-1.7-2.2-5.6-3.4-9.1-4
			c-17.1-3-33.5,3.3-34.7,3.9l0-0.5c1.5-0.9,20.1-8.5,38.1-5.3c3.5,0.6,6.7,1.6,8.5,3.9c0.7,0.9,0.9,1.9,0.8,2.8
			C56.4,38.3,53.1,41,50.6,42.4"/>
		<path fill="#E30613" d="M59.2,44.5c4,0,7,3.1,7,7.1c0,4.1-3,7.3-7.1,7.3c-4,0-7-3.1-7-7.2C52.1,47.5,55.1,44.5,59.2,44.5
			 M59.1,41.9c-5.6,0-9.7,4.1-9.7,9.8c0,5.5,4.1,9.7,9.5,9.7c5.7,0,9.9-4.1,9.9-9.7C68.9,46.1,64.7,41.9,59.1,41.9"/>
	</g>
	<polygon points="16.8,42.2 14.3,42.2 14.3,56.9 2.1,42.2 0,42.2 0,61.1 2.4,61.1 2.4,46.5 14.5,61.1 16.8,61.1 	"/>
	<g>
		<path d="M43.9,49.2c-2.6,4.5-12.1,13.9-12.1,13.9h-0.9c3.1-5.4,4.2-13.9,4.5-14.1l0-0.1c0,0-2.1,4.1-6.4,8.5
			c-4.3,4.3-5.9,5.7-5.9,5.7h-1c3.3-6.1,5.3-13,5.3-16.4c0-1-0.1-1.6-0.7-1.6c-1.3,0-2.6,2.2-3.3,3.8h-1c1.4-3.1,4.8-7.2,6.8-7.2
			c1.2,0,1.6,1.4,1.6,2.7c0,6.4-4.5,14.8-4.9,15.1c0,0.1,0.2,0.1,0.2,0.1c0.2-0.9,3.8-4,6.8-8.6c2.9-4.5,5.2-9.5,5.4-9.5
			c0.1-0.1,0.5,0.8,0.5,2.9c0,7.3-3.5,14.3-4.3,15.2c0,0.1,0.1,0.1,0.1,0.1c0.3-0.7,3.4-3.8,5.4-6.4c0.7-1,3.7-4.9,3.5-8.5
			c0,0,0.4-0.8,1.8-2.2c0,0,1-1,1.5-1c0.3,0,0.3,0.7,0.3,0.7C46.8,44.4,44.5,48.1,43.9,49.2"/>
	</g>
</g>
<rect x="77.5" y="28.3" width="0.6" height="38.3"/>
</svg>
