<?xml version="1.0"?>
<!--Icons from directory ""-->
<svg xmlns="https://www.w3.org/2000/svg" width="32" height="1120" viewBox="0 0 32 1120"><svg xmlns:xlink="https://www.w3.org/1999/xlink" height="32" width="32" version="1.1" viewBox="0 0 32 32" id="arrow-down-left" y="0"><g id="arrow-down-left-icomoon-ignore"><line y2="" opacity="" x2="" stroke="#449FDB" y1="" x1=""/></g><path d="m18 28c1.105 0 2-0.895 2-2s-0.895-2-2-2h-7.172l16.586-16.586c0.781-0.781 0.781-2.047 0-2.828-0.391-0.391-0.902-0.586-1.414-0.586s-1.024 0.195-1.414 0.586l-16.586 16.586v-7.172c0-1.105-0.895-2-2-2s-2 0.895-2 2v14h14z" visibility="false"/></svg><svg xmlns:xlink="https://www.w3.org/1999/xlink" height="32" width="32" version="1.1" viewBox="0 0 32 32" id="arrow-down-right" y="32"><g id="arrow-down-right-icomoon-ignore"><line y2="" opacity="" x2="" stroke="#449FDB" y1="" x1=""/></g><path d="m28 14c0-1.105-0.895-2-2-2s-2 0.895-2 2v7.172l-16.586-16.586c-0.781-0.781-2.047-0.781-2.828 0-0.391 0.391-0.586 0.902-0.586 1.414s0.195 1.024 0.586 1.414l16.586 16.586h-7.172c-1.105 0-2 0.895-2 2s0.895 2 2 2h14v-14z" visibility="false"/></svg><svg xmlns:xlink="https://www.w3.org/1999/xlink" height="32" width="32" version="1.1" viewBox="0 0 32 32" id="arrow-down" y="64"><g id="arrow-down-icomoon-ignore"><line y2="" opacity="" x2="" stroke="#449FDB" y1="" x1=""/></g><path d="m4.586 19.414l10 10c0.781 0.781 2.047 0.781 2.828 0l10-10c0.781-0.781 0.781-2.047 0-2.828s-2.047-0.781-2.828 0l-6.586 6.586v-19.172c0-1.105-0.895-2-2-2s-2 0.895-2 2v19.172l-6.586-6.586c-0.391-0.39-0.902-0.586-1.414-0.586s-1.024 0.195-1.414 0.586c-0.781 0.781-0.781 2.047 0 2.828z" visibility="false"/></svg><svg xmlns:xlink="https://www.w3.org/1999/xlink" height="32" width="32" version="1.1" viewBox="0 0 32 32" id="arrow-down2" y="96"><g id="arrow-down2-icomoon-ignore"><line y2="" opacity="" x2="" stroke="#449FDB" y1="" x1=""/></g><path d="m23.36 9.602l-14.72-0.002 7.36 12.8z" visibility="false"/></svg><svg xmlns:xlink="https://www.w3.org/1999/xlink" height="32" width="32" version="1.1" viewBox="0 0 32 32" id="arrow-down3" y="128"><g id="arrow-down3-icomoon-ignore"><line y2="" opacity="" x2="" stroke="#449FDB" y1="" x1=""/></g><path d="m24.773 13.701c-0.651 0.669-7.512 7.205-7.512 7.205-0.349 0.357-0.805 0.534-1.261 0.534-0.458 0-0.914-0.178-1.261-0.534 0 0-6.861-6.536-7.514-7.205-0.651-0.669-0.696-1.87 0-2.586 0.698-0.714 1.669-0.77 2.522 0l6.253 5.997 6.251-5.995c0.854-0.77 1.827-0.714 2.522 0 0.698 0.714 0.654 1.917 0 2.584z" visibility="false"/></svg><svg xmlns:xlink="https://www.w3.org/1999/xlink" height="32" width="32" version="1.1" viewBox="0 0 32 32" id="arrow-down4" y="160"><g id="arrow-down4-icomoon-ignore"><line y2="" opacity="" x2="" stroke="#449FDB" y1="" x1=""/></g><path d="m21.469 12.162c0.434-0.429 1.134-0.429 1.566 0 0.434 0.429 0.434 1.122 0 1.55l-6.251 6.128c-0.434 0.429-1.134 0.429-1.566 0l-6.253-6.128c-0.432-0.429-0.432-1.122 0-1.55 0.434-0.429 1.133-0.429 1.566 0l5.469 5.024 5.469-5.024z" visibility="false"/></svg><svg xmlns:xlink="https://www.w3.org/1999/xlink" height="32" width="32" version="1.1" viewBox="0 0 32 32" id="arrow-down5" y="192"><g id="arrow-down5-icomoon-ignore"><line y2="" opacity="" x2="" stroke="#449FDB" y1="" x1=""/></g><path d="m4.131 8.962c-0.434-0.429-1.134-0.429-1.566 0-0.432 0.427-0.432 1.122 0 1.55l12.653 12.528c0.434 0.429 1.133 0.429 1.566 0l12.653-12.528c0.432-0.429 0.434-1.122 0-1.55s-1.136-0.429-1.566-0.002l-11.87 11.426-11.869-11.424z" visibility="false"/></svg><svg xmlns:xlink="https://www.w3.org/1999/xlink" height="32" width="32" version="1.1" viewBox="0 0 32 32" id="arrow-left" y="224"><g id="arrow-left-icomoon-ignore"><line y2="" opacity="" x2="" stroke="#449FDB" y1="" x1=""/></g><path d="m12.586 4.586l-10 10c-0.781 0.781-0.781 2.047 0 2.828l10 10c0.781 0.781 2.047 0.781 2.828 0s0.781-2.047 0-2.828l-6.586-6.586h19.172c1.105 0 2-0.895 2-2s-0.895-2-2-2h-19.172l6.586-6.586c0.39-0.391 0.586-0.902 0.586-1.414s-0.195-1.024-0.586-1.414c-0.781-0.781-2.047-0.781-2.828 0z" visibility="false"/></svg><svg xmlns:xlink="https://www.w3.org/1999/xlink" height="32" width="32" version="1.1" viewBox="0 0 32 32" id="arrow-left2" y="256"><g id="arrow-left2-icomoon-ignore"><line y2="" opacity="" x2="" stroke="#449FDB" y1="" x1=""/></g><path d="m22.398 8.64l0.002 14.72-12.8-7.36z" visibility="false"/></svg><svg xmlns:xlink="https://www.w3.org/1999/xlink" height="32" width="32" version="1.1" viewBox="0 0 32 32" id="arrow-left3" y="288"><g id="arrow-left3-icomoon-ignore"><line y2="" opacity="" x2="" stroke="#449FDB" y1="" x1=""/></g><path d="m18.299 7.226c-0.669 0.653-7.203 7.514-7.203 7.514-0.357 0.349-0.534 0.805-0.534 1.261s0.178 0.912 0.534 1.261 6.534 6.861 7.203 7.512c0.669 0.653 1.872 0.698 2.586 0 0.712-0.696 0.768-1.667-0.002-2.52l-5.995-6.253 5.995-6.253c0.77-0.854 0.714-1.826 0.002-2.522-0.715-0.696-1.918-0.653-2.586 0z" visibility="false"/></svg><svg xmlns:xlink="https://www.w3.org/1999/xlink" height="32" width="32" version="1.1" viewBox="0 0 32 32" id="arrow-left4" y="320"><g id="arrow-left4-icomoon-ignore"><line y2="" opacity="" x2="" stroke="#449FDB" y1="" x1=""/></g><path d="m19.838 21.469c0.429 0.434 0.429 1.134 0 1.566-0.429 0.434-1.122 0.434-1.55 0l-6.128-6.251c-0.429-0.434-0.429-1.134 0-1.566l6.128-6.253c0.429-0.434 1.122-0.434 1.55 0s0.429 1.133 0 1.566l-5.024 5.469 5.024 5.469z" visibility="false"/></svg><svg xmlns:xlink="https://www.w3.org/1999/xlink" height="32" width="32" version="1.1" viewBox="0 0 32 32" id="arrow-left5" y="352"><g id="arrow-left5-icomoon-ignore"><line y2="" opacity="" x2="" stroke="#449FDB" y1="" x1=""/></g><path d="m23.038 27.869c0.429 0.434 0.429 1.133 0 1.566s-1.122 0.434-1.55 0l-12.528-12.651c-0.429-0.434-0.429-1.134 0-1.566l12.528-12.653c0.429-0.434 1.122-0.434 1.55 0s0.429 1.133 0 1.566l-11.424 11.869 11.424 11.869z" visibility="false"/></svg><svg xmlns:xlink="https://www.w3.org/1999/xlink" height="32" width="32" version="1.1" viewBox="0 0 32 32" id="arrow-right" y="384"><g id="arrow-right-icomoon-ignore"><line y2="" opacity="" x2="" stroke="#449FDB" y1="" x1=""/></g><path d="m19.414 27.414l10-10c0.781-0.781 0.781-2.047 0-2.828l-10-10c-0.781-0.781-2.047-0.781-2.828 0s-0.781 2.047 0 2.828l6.586 6.586h-19.172c-1.105 0-2 0.895-2 2s0.895 2 2 2h19.172l-6.586 6.586c-0.39 0.39-0.586 0.902-0.586 1.414s0.195 1.024 0.586 1.414c0.781 0.781 2.047 0.781 2.828 0z" visibility="false"/></svg><svg xmlns:xlink="https://www.w3.org/1999/xlink" height="32" width="32" version="1.1" viewBox="0 0 32 32" id="arrow-right2" y="416"><g id="arrow-right2-icomoon-ignore"><line y2="" opacity="" x2="" stroke="#449FDB" y1="" x1=""/></g><path d="m9.602 8.64l-0.002 14.72 12.8-7.36z" visibility="false"/></svg><svg xmlns:xlink="https://www.w3.org/1999/xlink" height="32" width="32" version="1.1" viewBox="0 0 32 32" id="arrow-right3" y="448"><g id="arrow-right3-icomoon-ignore"><line y2="" opacity="" x2="" stroke="#449FDB" y1="" x1=""/></g><path d="m13.701 7.226c0.669 0.653 7.203 7.514 7.203 7.514 0.358 0.349 0.536 0.805 0.536 1.261s-0.178 0.912-0.536 1.261-6.534 6.861-7.203 7.512c-0.669 0.653-1.87 0.698-2.586 0-0.714-0.696-0.77-1.667 0-2.52l5.997-6.253-5.995-6.253c-0.77-0.854-0.714-1.826 0-2.522s1.917-0.653 2.584 0z" visibility="false"/></svg><svg xmlns:xlink="https://www.w3.org/1999/xlink" height="32" width="32" version="1.1" viewBox="0 0 32 32" id="arrow-right4" y="480"><g id="arrow-right4-icomoon-ignore"><line y2="" opacity="" x2="" stroke="#449FDB" y1="" x1=""/></g><path d="m12.162 21.469c-0.429 0.434-0.429 1.134 0 1.566 0.427 0.434 1.122 0.434 1.55 0l6.128-6.251c0.429-0.434 0.429-1.134 0-1.566l-6.128-6.253c-0.429-0.434-1.122-0.434-1.55 0s-0.429 1.133-0.002 1.565l5.026 5.47-5.024 5.469z" visibility="false"/></svg><svg xmlns:xlink="https://www.w3.org/1999/xlink" height="32" width="32" version="1.1" viewBox="0 0 32 32" id="arrow-up-left" y="512"><g id="arrow-up-left-icomoon-ignore"><line y2="" opacity="" x2="" stroke="#449FDB" y1="" x1=""/></g><path d="m4 18c0 1.105 0.895 2 2 2s2-0.895 2-2v-7.172l16.586 16.586c0.781 0.781 2.047 0.781 2.828 0 0.391-0.391 0.586-0.902 0.586-1.414s-0.195-1.024-0.586-1.414l-16.586-16.586h7.172c1.105 0 2-0.895 2-2s-0.895-2-2-2h-14v14z" visibility="false"/></svg><svg xmlns:xlink="https://www.w3.org/1999/xlink" height="32" width="32" version="1.1" viewBox="0 0 32 32" id="arrow-up-right" y="544"><g id="arrow-up-right-icomoon-ignore"><line y2="" opacity="" x2="" stroke="#449FDB" y1="" x1=""/></g><path d="m26.001 4h-0.001-11.999c-1.105 0-2 0.895-2 2s0.895 2 2 2h7.172l-16.586 16.586c-0.781 0.781-0.781 2.047 0 2.828 0.391 0.391 0.902 0.586 1.414 0.586s1.024-0.195 1.414-0.586l16.586-16.586v7.172c0 1.105 0.895 2 2 2s2-0.895 2-2v-14h-1.999z" visibility="false"/></svg><svg xmlns:xlink="https://www.w3.org/1999/xlink" height="32" width="32" version="1.1" viewBox="0 0 32 32" id="arrow-up" y="576"><g id="arrow-up-icomoon-ignore"><line y2="" opacity="" x2="" stroke="#449FDB" y1="" x1=""/></g><path d="m27.414 12.586l-10-10c-0.781-0.781-2.047-0.781-2.828 0l-10 10c-0.781 0.781-0.781 2.047 0 2.828s2.047 0.781 2.828 0l6.586-6.586v19.172c0 1.105 0.895 2 2 2s2-0.895 2-2v-19.172l6.586 6.586c0.39 0.39 0.902 0.586 1.414 0.586s1.024-0.195 1.414-0.586c0.781-0.781 0.781-2.047 0-2.828z" visibility="false"/></svg><svg xmlns:xlink="https://www.w3.org/1999/xlink" height="32" width="32" version="1.1" viewBox="0 0 32 32" id="arrow-up2" y="608"><g id="arrow-up2-icomoon-ignore"><line y2="" opacity="" x2="" stroke="#449FDB" y1="" x1=""/></g><path d="m8.64 22.4h14.72l-7.362-12.8z" visibility="false"/></svg><svg xmlns:xlink="https://www.w3.org/1999/xlink" height="32" width="32" version="1.1" viewBox="0 0 32 32" id="arrow-up3" y="640"><g id="arrow-up3-icomoon-ignore"><line y2="" opacity="" x2="" stroke="#449FDB" y1="" x1=""/></g><path d="m24.773 18.299c-0.651-0.669-7.512-7.203-7.512-7.203-0.349-0.357-0.805-0.536-1.261-0.536-0.458 0-0.914 0.179-1.261 0.536 0 0-6.861 6.534-7.514 7.203-0.651 0.669-0.696 1.872 0 2.586 0.698 0.712 1.669 0.77 2.522 0l6.253-5.995 6.251 5.995c0.854 0.77 1.827 0.712 2.522 0 0.698-0.715 0.654-1.918 0-2.586z" visibility="false"/></svg><svg xmlns:xlink="https://www.w3.org/1999/xlink" height="32" width="32" version="1.1" viewBox="0 0 32 32" id="arrow-up4" y="672"><g id="arrow-up4-icomoon-ignore"><line y2="" opacity="" x2="" stroke="#449FDB" y1="" x1=""/></g><path d="m10.53 19.838c-0.434 0.429-1.133 0.429-1.566 0-0.432-0.429-0.434-1.122 0-1.552l6.253-6.125c0.434-0.429 1.134-0.429 1.566 0l6.253 6.126c0.434 0.43 0.434 1.123 0 1.552s-1.133 0.429-1.566 0l-5.47-5.026-5.469 5.024z" visibility="false"/></svg><svg xmlns:xlink="https://www.w3.org/1999/xlink" height="32" width="32" version="1.1" viewBox="0 0 32 32" id="arrow-up5" y="704"><g id="arrow-up5-icomoon-ignore"><line y2="" opacity="" x2="" stroke="#449FDB" y1="" x1=""/></g><path d="m27.869 23.038c0.434 0.429 1.134 0.429 1.566 0 0.434-0.429 0.434-1.122 0-1.55l-12.653-12.528c-0.432-0.429-1.133-0.429-1.565 0l-12.653 12.528c-0.432 0.429-0.434 1.122 0 1.55s1.133 0.429 1.566 0l11.869-11.426 11.869 11.426z" visibility="false"/></svg><svg xmlns:xlink="https://www.w3.org/1999/xlink" height="32" width="32" version="1.1" viewBox="0 0 32 32" id="arrow-up6" y="736"><g id="arrow-up6-icomoon-ignore"><line y2="" opacity="" x2="" stroke="#449FDB" y1="" x1=""/></g><path d="m8.96 27.869c-0.429 0.434-0.429 1.133 0 1.566s1.122 0.434 1.55 0l12.528-12.651c0.429-0.434 0.429-1.134 0-1.566l-12.528-12.653c-0.429-0.434-1.122-0.434-1.55 0s-0.429 1.133 0 1.566l11.424 11.869-11.424 11.869z" visibility="false"/></svg><svg xmlns:xlink="https://www.w3.org/1999/xlink" height="32" width="32" version="1.1" viewBox="0 0 32 32" id="facebook" y="768"><g id="facebook-icomoon-ignore"><line y2="" opacity="" x2="" stroke="#449FDB" y1="" x1=""/></g><path d="m24 6.606h-4.57c-0.541 0-1.144 0.71-1.144 1.662v3.299h5.714v4.704h-5.714v14.128h-5.395v-14.126h-4.891v-4.706h4.891v-2.768c0-3.97 2.755-7.2 6.538-7.2h4.571v5.006z" visibility="false"/></svg><svg xmlns:xlink="https://www.w3.org/1999/xlink" height="32" width="32" version="1.1" viewBox="0 0 32 32" id="googleplus" y="800"><g id="googleplus-icomoon-ignore"><line y2="" opacity="" x2="" stroke="#449FDB" y1="" x1=""/></g><path d="m3.184 8.942c0 2.389 0.798 4.115 2.371 5.128 1.288 0.83 2.784 0.955 3.562 0.955 0.189 0 0.339-0.008 0.445-0.014 0 0-0.246 1.605 0.944 3.194l-0.054-0.002c-2.062 0-8.79 0.432-8.79 5.963 0 5.627 6.179 5.912 7.418 5.912 0.098 0 0.154-0.002 0.154-0.002 0.014 0 0.102 0.003 0.253 0.003 0.795 0 2.851-0.099 4.762-1.029 2.477-1.202 3.734-3.294 3.734-6.216 0-2.824-1.914-4.504-3.312-5.733-0.853-0.749-1.59-1.395-1.59-2.024 0-0.64 0.538-1.122 1.219-1.731 1.101-0.986 2.141-2.389 2.141-5.042 0-2.333-0.302-3.898-2.166-4.89 0.195-0.099 0.882-0.171 1.222-0.219 1.01-0.138 2.486-0.294 2.486-1.118v-0.158h-7.357c-0.074 0.002-7.44 0.275-7.44 7.022zm11.877 14.421c0.141 2.25-1.784 3.91-4.674 4.12-2.934 0.216-5.352-1.106-5.493-3.355-0.067-1.08 0.406-2.138 1.336-2.981 0.944-0.853 2.237-1.379 3.646-1.485 0.166-0.01 0.331-0.018 0.496-0.018 2.715 0 4.555 1.597 4.688 3.718zm-1.922-15.961c0.722 2.539-0.368 5.194-2.104 5.683-0.2 0.056-0.406 0.085-0.614 0.085-1.592 0-3.168-1.61-3.752-3.827-0.326-1.246-0.301-2.334 0.074-3.382 0.368-1.029 1.029-1.726 1.861-1.96 0.2-0.058 0.408-0.085 0.616-0.085 1.92 0 3.155 0.797 3.92 3.486zm12.399 5.529v-4.8h-3.04v4.8h-4.8v3.04h4.8v4.8h3.04v-4.8h4.8v-3.04h-4.8z" visibility="false"/></svg><svg xmlns:xlink="https://www.w3.org/1999/xlink" height="32" width="32" version="1.1" viewBox="0 0 32 32" id="house" y="832"><g id="house-icomoon-ignore"><line y2="" opacity="" x2="" stroke="#449FDB" y1="" x1=""/></g><path d="m30.032 16.48l-12.838-12.85c-0.656-0.682-1.73-0.682-2.386 0l-12.84 12.85c-0.658 0.68-0.413 1.238 0.544 1.238h2.677v9.869c0 0.712 0.03 1.294 1.318 1.294h6.232v-9.901h6.52v9.901h6.542c0.982 0 1.01-0.581 1.01-1.294v-9.869h2.675c0.955 0 1.202-0.557 0.546-1.238z" visibility="false"/></svg><svg xmlns:xlink="https://www.w3.org/1999/xlink" height="32" width="32" version="1.1" viewBox="0 0 32 32" id="linkedin" y="864"><g id="linkedin-icomoon-ignore"><line y2="" opacity="" x2="" stroke="#449FDB" y1="" x1=""/></g><path d="m8.122 4.88c0 1.701-1.256 3.078-3.322 3.078-1.944 0-3.2-1.378-3.2-3.078 0-1.741 1.298-3.078 3.282-3.078s3.2 1.338 3.24 3.078zm-6.359 25.318v-19.808h6.157v19.808h-6.157zm9.842-13.489c0-2.47-0.082-4.536-0.163-6.318h5.347l0.285 2.755h0.122c0.81-1.298 2.795-3.2 6.117-3.2 4.05 0 7.088 2.714 7.088 8.547v11.707h-6.157v-10.978c0-2.552-0.893-4.294-3.12-4.294-1.701 0-2.712 1.174-3.158 2.309-0.163 0.405-0.203 0.971-0.203 1.539v11.424h-6.157v-13.491z" visibility="false"/></svg><svg xmlns:xlink="https://www.w3.org/1999/xlink" height="32" width="32" version="1.1" viewBox="0 0 32 32" id="list" y="896"><g id="list-icomoon-ignore"><line y2="" opacity="" x2="" stroke="#449FDB" y1="" x1=""/></g><path d="m25.6 14.4h-19.2c-0.883 0-1.6 0.717-1.6 1.6s0.717 1.6 1.6 1.6h19.2c0.885 0 1.6-0.717 1.6-1.6s-0.715-1.6-1.6-1.6zm-19.2-3.2h19.2c0.885 0 1.6-0.717 1.6-1.6s-0.715-1.6-1.6-1.6h-19.2c-0.883 0-1.6 0.717-1.6 1.6s0.717 1.6 1.6 1.6zm19.2 9.6h-19.2c-0.883 0-1.6 0.715-1.6 1.6s0.717 1.6 1.6 1.6h19.2c0.885 0 1.6-0.715 1.6-1.6s-0.715-1.6-1.6-1.6z" visibility="false"/></svg><svg xmlns:xlink="https://www.w3.org/1999/xlink" height="32" width="32" version="1.1" viewBox="0 0 32 32" id="minus" y="928"><g id="minus-icomoon-ignore"><line y2="" opacity="" x2="" stroke="#449FDB" y1="" x1=""/></g><path d="m24.318 14.4h-16.638c-0.885 0-0.96 0.717-0.96 1.6s0.075 1.6 0.96 1.6h16.638c0.885 0 0.962-0.717 0.962-1.6s-0.077-1.6-0.962-1.6z" visibility="false"/></svg><svg xmlns:xlink="https://www.w3.org/1999/xlink" height="32" width="32" version="1.1" viewBox="0 0 32 32" id="pinterest" y="960"><g id="pinterest-icomoon-ignore"><line y2="" opacity="" x2="" stroke="#449FDB" y1="" x1=""/></g><path d="m13.786 21.165c-0.84 4.405-1.866 8.629-4.906 10.835-0.938-6.659 1.378-11.659 2.453-16.968-1.834-3.088 0.221-9.299 4.09-7.768 4.76 1.883-4.122 11.477 1.84 12.675 6.226 1.251 8.766-10.8 4.907-14.718-5.578-5.661-16.237-0.131-14.925 7.97 0.318 1.981 2.365 2.582 0.818 5.315-3.57-0.79-4.635-3.606-4.498-7.36 0.221-6.142 5.52-10.443 10.835-11.038 6.723-0.754 13.032 2.467 13.901 8.79 0.981 7.136-3.032 14.866-10.222 14.309-1.947-0.149-2.765-1.114-4.293-2.042z" visibility="false"/></svg><svg xmlns:xlink="https://www.w3.org/1999/xlink" height="32" width="32" version="1.1" viewBox="0 0 32 32" id="plus" y="992"><g id="plus-icomoon-ignore"><line y2="" opacity="" x2="" stroke="#449FDB" y1="" x1=""/></g><path d="m24.318 14.4h-6.72v-6.72c0-0.883-0.715-0.96-1.6-0.96-0.883 0-1.6 0.075-1.6 0.96v6.72h-6.718c-0.885 0-0.96 0.717-0.96 1.6s0.075 1.6 0.96 1.6h6.718v6.72c0 0.883 0.717 0.96 1.6 0.96 0.885 0 1.6-0.077 1.6-0.96v-6.72h6.72c0.885 0 0.962-0.717 0.962-1.6s-0.077-1.6-0.962-1.6z" visibility="false"/></svg><svg xmlns:xlink="https://www.w3.org/1999/xlink" height="32" width="30" version="1.1" viewBox="0 0 30 32" id="search" y="1024"><g id="search-icomoon-ignore"><line y2="" opacity="" x2="" stroke="#449FDB" y1="" x1=""/></g><path d="m0 14.857q0-2.554 0.991-4.884t2.679-4.018 4.018-2.679 4.884-0.991 4.884 0.991 4.018 2.679 2.679 4.018 0.991 4.884q0 3.929-2.214 7.125l6.125 6.125q0.661 0.661 0.661 1.607 0 0.929-0.679 1.607t-1.607 0.679q-0.964 0-1.607-0.679l-6.125-6.107q-3.196 2.214-7.125 2.214-2.554 0-4.884-0.991t-4.018-2.679-2.679-4.018-0.991-4.884zm4.571 0q0 3.304 2.348 5.652t5.652 2.348 5.652-2.348 2.348-5.652-2.348-5.652-5.652-2.348-5.652 2.348-2.348 5.652z" visibility="false"/></svg><svg xmlns:xlink="https://www.w3.org/1999/xlink" height="32" width="32" version="1.1" viewBox="0 0 32 32" id="twitter" y="1056"><g id="twitter-icomoon-ignore"><line y2="" opacity="" x2="" stroke="#449FDB" y1="" x1=""/></g><path d="m30.72 6.869c-1.085 0.482-2.248 0.805-3.47 0.952 1.248-0.747 2.206-1.931 2.656-3.341-1.166 0.691-2.459 1.195-3.834 1.466-1.102-1.174-2.672-1.907-4.41-1.907-3.336 0-6.04 2.704-6.04 6.038 0 0.474 0.053 0.934 0.157 1.376-5.019-0.251-9.47-2.656-12.448-6.31-0.522 0.891-0.821 1.93-0.821 3.037 0 2.096 1.067 3.944 2.688 5.027-0.99-0.032-1.922-0.302-2.736-0.755v0.075c0 2.926 2.083 5.366 4.845 5.923-0.506 0.138-1.04 0.211-1.592 0.211-0.389 0-0.766-0.037-1.136-0.107 0.768 2.4 3 4.146 5.642 4.194-2.067 1.621-4.67 2.586-7.501 2.586-0.488 0-0.968-0.029-1.44-0.085 2.672 1.714 5.846 2.714 9.259 2.714 11.109 0 17.184-9.203 17.184-17.186 0-0.261-0.005-0.522-0.018-0.781 1.181-0.851 2.203-1.915 3.014-3.126z" visibility="false"/></svg><svg xmlns:xlink="https://www.w3.org/1999/xlink" height="32" width="32" version="1.1" viewBox="0 0 32 32" id="vimeo" y="1088"><g id="vimeo-icomoon-ignore"><line y2="" opacity="" x2="" stroke="#449FDB" y1="" x1=""/></g><path d="m30.256 9.346c-1.61 9.235-10.6 17.056-13.304 18.842-2.706 1.786-5.171-0.715-6.067-2.608-1.024-2.155-4.094-13.851-4.899-14.818-0.803-0.971-3.216 0.966-3.216 0.966l-1.17-1.562s4.899-5.96 8.627-6.704c3.952-0.789 3.946 6.182 4.896 10.053 0.92 3.746 1.538 5.89 2.339 5.89 0.805 0 2.339-2.09 4.021-5.291 1.685-3.205-0.072-6.034-3.363-4.022 1.315-8.045 13.746-9.979 12.136-0.746z" visibility="false"/></svg></svg>
