<svg version="1.1" id="Layer_1" xmlns="http://www.w3.org/2000/svg" xmlns:xlink="http://www.w3.org/1999/xlink" x="0px" y="0px"
	 width="18px" height="18px" viewBox="0 0 18 18" enable-background="new 0 0 18 18" xml:space="preserve">
<g>
	<path fill="#FFFFFF" d="M17.981,10.481c0.006-0.038,0.013-0.076,0.019-0.113L13.111,9L18,7.632
		c-0.006-0.037-0.012-0.075-0.019-0.112L12.91,7.729l4.227-2.811c-0.017-0.034-0.035-0.068-0.052-0.102l-4.758,1.767l3.149-3.979
		c-0.026-0.027-0.054-0.055-0.081-0.081l-3.979,3.149l1.767-4.758c-0.033-0.018-0.068-0.035-0.102-0.052l-2.811,4.227l0.209-5.071
		C10.442,0.012,10.405,0.005,10.368,0L9,4.888L7.632,0C7.595,0.005,7.557,0.012,7.519,0.019l0.21,5.071L4.917,0.863
		C4.884,0.88,4.85,0.897,4.816,0.915l1.767,4.758L2.604,2.524C2.577,2.55,2.55,2.578,2.523,2.605l3.15,3.979L0.914,4.816
		C0.896,4.85,0.88,4.884,0.862,4.918l4.226,2.811L0.018,7.52C0.012,7.557,0.005,7.595,0,7.632L4.888,9L0,10.368
		c0.005,0.038,0.012,0.076,0.018,0.113l5.071-0.21l-4.226,2.812c0.018,0.033,0.034,0.068,0.052,0.102l4.759-1.768l-3.15,3.979
		c0.027,0.027,0.054,0.054,0.081,0.081l3.979-3.15l-1.767,4.759c0.033,0.018,0.068,0.034,0.101,0.052l2.812-4.226l-0.21,5.07
		C7.557,17.989,7.595,17.995,7.632,18L9,13.112L10.368,18c0.038-0.005,0.075-0.011,0.112-0.019l-0.209-5.07l2.811,4.226
		c0.034-0.018,0.069-0.034,0.102-0.052l-1.767-4.759l3.979,3.15c0.027-0.027,0.055-0.054,0.081-0.081l-3.149-3.979l4.758,1.768
		c0.018-0.034,0.035-0.069,0.052-0.102l-4.227-2.812L17.981,10.481z M11,9.671C11,10.066,10.245,11,9.85,11H9.517
		c-0.175,0-0.325,0-0.389,0H8.872c-0.064,0-0.213,0-0.389,0H8.15C7.754,11,7,10.066,7,9.671V7h4V9.671z"/>
	<path fill="#FFFFFF" d="M10,7H7.729l2.283,2.695C10.089,9.619,10,9.788,10,9.671V7z"/>
	<path fill="#1D1D1B" d="M6,6v3.922C6,10.464,7.289,12,7.833,12h0.456c0.241,0,0.446,0,0.535,0h0.351c0.089,0,0.295,0,0.535,0h0.457
		C10.708,12,12,10.464,12,9.922V6H6z"/>
</g>
<polygon fill="#FFFFFF" points="11,10.742 7.246,7 11,7 "/>
</svg>
