<?xml version="1.0" encoding="utf-8"?>
<!-- Generator: Adobe Illustrator 16.0.4, SVG Export Plug-In . SVG Version: 6.00 Build 0)  -->
<!DOCTYPE svg PUBLIC "-//W3C//DTD SVG 1.1//EN" "http://www.w3.org/Graphics/SVG/1.1/DTD/svg11.dtd">
<svg version="1.1" id="Layer_1" xmlns="http://www.w3.org/2000/svg" xmlns:xlink="http://www.w3.org/1999/xlink" x="0px" y="0px"
	 width="206.333px" height="50.762px" viewBox="0 0 206.333 50.762" enable-background="new 0 0 206.333 50.762"
	 xml:space="preserve">
<g>
	<ellipse fill="#FFCE00" cx="25.22" cy="25.257" rx="24.013" ry="24.03"/>
	<path fill="#FFCE00" d="M29.338,27.491c0,1.037-0.84,1.874-1.875,1.874h-0.876c-0.458,0-0.852,0.281-1.021,0.677h-0.67
		c-0.168-0.396-0.562-0.677-1.021-0.677H23c-1.036,0-1.876-0.837-1.876-1.874v-6.342h8.215V27.491z M28.572,21.92H21.89v5.571
		c0,0.609,0.498,1.105,1.109,1.105h0.875c0.534,0,1.005,0.225,1.346,0.58h0.022c0.343-0.355,0.813-0.58,1.345-0.58h0.876
		c0.612,0,1.109-0.496,1.109-1.105V21.92z"/>
	<polygon fill="#FFCE00" points="21.489,2.037 21.946,1.451 22.719,1.357 23.301,1.815 27.156,1.815 27.741,1.357 28.511,1.451 
		28.971,2.035 32.713,2.958 33.389,2.652 34.115,2.929 34.42,3.605 37.83,5.395 38.559,5.262 39.198,5.701 39.331,6.433 
		42.218,8.987 42.957,9.034 43.472,9.616 43.429,10.355 45.614,13.524 46.323,13.745 46.685,14.434 46.465,15.141 47.832,18.747 
		48.468,19.129 48.653,19.884 48.27,20.519 48.732,24.344 49.258,24.87 49.258,25.649 48.732,26.171 48.27,29.994 48.655,30.628 
		48.471,31.385 47.833,31.767 46.466,35.372 46.687,36.079 46.325,36.769 45.619,36.988 43.429,40.16 43.472,40.902 42.957,41.483 
		42.218,41.527 39.336,44.082 39.202,44.812 38.563,45.253 37.833,45.117 34.419,46.91 34.115,47.588 33.389,47.863 32.712,47.558 
		28.973,48.481 28.516,49.065 27.744,49.158 27.161,48.698 23.306,48.698 22.722,49.158 21.949,49.065 21.494,48.481 17.75,47.558 
		17.074,47.863 16.347,47.588 16.042,46.91 12.633,45.121 11.903,45.256 11.264,44.813 11.131,44.083 8.243,41.527 7.505,41.483 
		6.989,40.902 7.033,40.16 4.845,36.995 4.137,36.773 3.776,36.084 3.997,35.375 2.629,31.77 1.995,31.389 1.809,30.631 2.192,30 
		1.728,26.171 1.203,25.649 1.203,24.87 1.728,24.344 2.191,20.524 1.808,19.888 1.993,19.132 2.628,18.75 3.996,15.144 
		3.774,14.437 4.136,13.749 4.843,13.526 7.035,10.355 6.989,9.616 7.505,9.034 8.243,8.987 11.127,6.435 11.26,5.705 11.901,5.262 
		12.629,5.398 16.043,3.605 16.347,2.929 17.074,2.652 17.75,2.958 	"/>
	<polyline fill="#FFCE00" points="27.534,34.591 33.389,47.863 34.115,47.588 	"/>
	<polyline fill="#FFCE00" points="15.874,21.715 2.088,19.087 1.993,19.132 1.808,19.888 	"/>
	<polyline fill="#FFCE00" points="4.136,13.749 3.774,14.437 3.822,14.555 15.874,21.715 	"/>
	<g>
		<defs>
			<circle id="SVGID_1_" cx="25.231" cy="25.257" r="24.03"/>
		</defs>
		<clipPath id="SVGID_2_">
			<use xlink:href="#SVGID_1_"  overflow="visible"/>
		</clipPath>
		<polyline clip-path="url(#SVGID_2_)" points="22.682,1.159 25.231,15.646 27.779,1.159 		"/>
		<polyline clip-path="url(#SVGID_2_)" points="28.526,1.249 27.534,15.924 33.474,2.47 		"/>
		<polyline clip-path="url(#SVGID_2_)" points="34.173,2.734 29.698,16.748 38.687,5.103 		"/>
		<polyline clip-path="url(#SVGID_2_)" points="39.304,5.53 31.606,18.063 43.119,8.911 		"/>
		<polyline clip-path="url(#SVGID_2_)" points="43.615,9.471 33.142,19.798 46.511,13.666 		"/>
		<polyline clip-path="url(#SVGID_2_)" points="46.859,14.33 34.219,21.848 48.667,19.095 		"/>
		<polyline clip-path="url(#SVGID_2_)" points="48.848,19.824 34.774,24.101 49.462,24.883 		"/>
		<polyline clip-path="url(#SVGID_2_)" points="49.462,25.633 34.774,26.417 48.848,30.692 		"/>
		<polyline clip-path="url(#SVGID_2_)" points="48.667,31.419 34.219,28.667 46.859,36.188 		"/>
		<polyline clip-path="url(#SVGID_2_)" points="46.511,36.853 33.142,30.72 43.615,41.045 		"/>
		<polyline clip-path="url(#SVGID_2_)" points="43.119,41.607 31.606,32.45 39.304,44.986 		"/>
		<polyline clip-path="url(#SVGID_2_)" points="38.687,45.414 29.698,33.771 34.173,47.783 		"/>
		<polyline clip-path="url(#SVGID_2_)" points="27.779,49.356 25.231,34.87 22.682,49.356 		"/>
		<polyline clip-path="url(#SVGID_2_)" points="21.936,49.267 22.93,34.591 16.989,48.046 		"/>
		<polyline clip-path="url(#SVGID_2_)" points="16.289,47.783 20.764,33.771 11.776,45.414 		"/>
		<polyline clip-path="url(#SVGID_2_)" points="11.158,44.986 18.858,32.45 7.342,41.607 		"/>
		<polyline clip-path="url(#SVGID_2_)" points="6.847,41.045 17.32,30.72 3.951,36.853 		"/>
		<polyline clip-path="url(#SVGID_2_)" points="3.601,36.188 16.242,28.667 1.794,31.419 		"/>
		<polyline clip-path="url(#SVGID_2_)" points="1.613,30.692 15.689,26.417 1,25.633 		"/>
		<polyline clip-path="url(#SVGID_2_)" points="1,24.883 15.689,24.101 1.613,19.824 		"/>
		<polyline clip-path="url(#SVGID_2_)" points="1.794,19.095 16.242,21.848 3.601,14.33 		"/>
		<polyline clip-path="url(#SVGID_2_)" points="3.951,13.666 17.32,19.798 6.847,9.471 		"/>
		<polyline clip-path="url(#SVGID_2_)" points="7.342,8.911 18.858,18.063 11.158,5.53 		"/>
		<polyline clip-path="url(#SVGID_2_)" points="11.776,5.103 20.764,16.748 16.289,2.734 		"/>
		<polyline clip-path="url(#SVGID_2_)" points="16.989,2.47 22.93,15.924 21.936,1.249 		"/>
		<path clip-path="url(#SVGID_2_)" fill="#FFFFFF" d="M40.427,6.47L38.192,9.21c0.586,0.476,1.146,0.98,1.678,1.516l0.541-0.536
			c-0.35-0.353-0.712-0.692-1.086-1.022l1.82-2.092"/>
		<path clip-path="url(#SVGID_2_)" fill="#FFFFFF" d="M47.993,17.137l-3.345,1.189c-0.089-0.251-0.192-0.516-0.294-0.768
			l3.303-1.319"/>
		<path clip-path="url(#SVGID_2_)" fill="#FFFFFF" d="M49.312,23.269l-2.735-0.553l0-0.009l2.533-1.153l-0.162-0.929l-3.307,1.726
			c0.049,0.322,0.084,0.641,0.115,0.964l3.612,0.851"/>
		<path clip-path="url(#SVGID_2_)" fill="#FFFFFF" d="M47.296,35.121l-0.818-0.365c0.119-0.265,0.236-0.538,0.344-0.812
			l-2.464-0.996c0.102-0.25,0.201-0.518,0.29-0.768l2.504,0.898c0.096-0.272,0.19-0.546,0.277-0.819l0.847,0.268"/>
		<path clip-path="url(#SVGID_2_)" fill="#FFFFFF" d="M44.834,39.384l-2.876-2.082c0.157-0.218,0.318-0.455,0.464-0.678l2.96,1.969"
			/>
		<path clip-path="url(#SVGID_2_)" fill="#FFFFFF" d="M40.178,44.243l-0.553-0.696c0.23-0.183,0.459-0.368,0.683-0.559l-1.719-2.029
			c0.207-0.175,0.417-0.366,0.614-0.545l1.8,1.958c0.213-0.195,0.42-0.394,0.624-0.598l0.627,0.635"/>
		<path clip-path="url(#SVGID_2_)" fill="#FFFFFF" d="M36.027,46.882l-1.585-3.185c0.241-0.122,0.491-0.253,0.725-0.384l1.709,3.121
			"/>
		<polyline clip-path="url(#SVGID_2_)" points="33.474,48.046 27.534,34.591 28.526,49.267 		"/>
		<g clip-path="url(#SVGID_2_)">
			<defs>
				<polyline id="SVGID_3_" points="33.474,48.046 27.534,34.591 28.526,49.267 				"/>
			</defs>
			<clipPath id="SVGID_4_">
				<use xlink:href="#SVGID_3_"  overflow="visible"/>
			</clipPath>
			<path clip-path="url(#SVGID_4_)" fill="#FFFFFF" d="M32.099,48.431l0.698-2.234l-0.534-1.201l-0.18,0.693
				c-0.365,0.124-0.731,0.239-1.102,0.34l-0.262-0.897c-0.681,0.189-1.371,0.342-2.065,0.459l0.125,0.75
				c0.427-0.072,0.853-0.155,1.327-0.266l0.149,0.591c-0.445,0.104-0.839,0.183-1.235,0.252l0.113,0.677
				c0.416-0.071,0.819-0.155,1.289-0.261l0.144,0.579c-0.517,0.119-0.979,0.212-1.442,0.292l0.144,0.88 M31.483,47.903l-0.331-1.206
				c0.238-0.067,0.503-0.146,0.749-0.223l-0.375,1.418L31.483,47.903z"/>
		</g>
		<path clip-path="url(#SVGID_2_)" fill="#FFFFFF" d="M18.999,48.608l0.923-3.432c0.26,0.069,0.537,0.134,0.8,0.192l-0.787,3.472"/>
		<path clip-path="url(#SVGID_2_)" fill="#FFFFFF" d="M14.987,47.148l1.516-3.211c-0.684-0.32-1.349-0.675-1.995-1.068l-0.395,0.654
			c0.424,0.256,0.857,0.499,1.298,0.728l-1.279,2.479"/>
		<path clip-path="url(#SVGID_2_)" fill="#FFFFFF" d="M10.049,44.055l2.234-2.75c-0.587-0.475-1.148-0.98-1.68-1.517l-0.541,0.54
			c0.351,0.353,0.714,0.692,1.087,1.019l-1.824,2.085"/>
		<path clip-path="url(#SVGID_2_)" fill="#FFFFFF" d="M4.376,37.466l3.595-0.929c0.177,0.27,0.359,0.536,0.548,0.797l-2.123,3.06
			l-0.576-0.742l1.706-2.197L7.52,37.449l-2.676,0.785"/>
		<path clip-path="url(#SVGID_2_)" fill="#FFFFFF" d="M1.117,26.79l0.884-0.057c0.019,0.291,0.043,0.586,0.075,0.88l2.645-0.267
			c0.029,0.267,0.064,0.551,0.101,0.815l-2.633,0.372c0.04,0.283,0.085,0.57,0.137,0.852l-0.879,0.158"/>
		<path clip-path="url(#SVGID_2_)" fill="#FFFFFF" d="M1.217,22.343l0.153,0.013c0.083-0.685,0.419-1.247,1.042-1.202
			c0.51,0.034,0.833,0.379,0.844,0.927l0.017,0.004c0.133-0.158,0.252-0.218,0.467-0.341c0.337-0.196,1.274-0.519,1.274-0.519
			c-0.078,0.315-0.126,0.613-0.169,0.922c0,0-0.546,0.148-0.799,0.243c-0.31,0.111-0.599,0.294-0.644,0.531l-0.014,0.134
			l1.333,0.128C4.696,23.455,4.674,23.726,4.657,24l-3.583-0.207 M1.964,22.525c-0.015,0.128-0.017,0.256-0.033,0.398l0.853,0.085
			c0.011-0.119,0.028-0.26,0.042-0.383c0.025-0.212-0.017-0.539-0.362-0.578C2.18,22.016,2.003,22.167,1.964,22.525z"/>
		<path clip-path="url(#SVGID_2_)" fill="#FFFFFF" d="M2.817,16.209l3.839,0.104c-0.137,0.284-0.268,0.574-0.393,0.863l-0.808-0.036
			c-0.153,0.371-0.295,0.747-0.427,1.128l0.631,0.511c-0.097,0.289-0.186,0.581-0.27,0.877l-2.907-2.567 M3.365,16.969l1.114,0.855
			c0.09-0.252,0.186-0.5,0.284-0.751l-1.395-0.115L3.365,16.969z"/>
		<path clip-path="url(#SVGID_2_)" fill="#FFFFFF" d="M8.735,7.601l2.594,0.867L9.831,6.631l0.705-0.555l2.118,2.848
			c-0.243,0.186-0.479,0.378-0.714,0.575L9.436,8.669l1.583,1.654c-0.181,0.173-0.356,0.345-0.532,0.525L7.948,8.373"/>
		<path clip-path="url(#SVGID_2_)" fill="#FFFFFF" d="M29.375,4.308c0.188,0.113,0.5,0.277,0.737,0.335
			c0.272,0.064,0.57,0.081,0.648-0.232c0.074-0.31-0.31-0.434-0.673-0.646c-0.362-0.212-0.709-0.512-0.552-1.159
			c0.178-0.719,0.983-0.877,1.616-0.721c0.372,0.092,0.699,0.262,1.009,0.478l-0.397,0.557c-0.2-0.135-0.493-0.268-0.671-0.312
			c-0.417-0.102-0.608,0.01-0.659,0.224c-0.032,0.134,0.034,0.275,0.401,0.451c0.809,0.403,0.957,0.802,0.843,1.271
			c-0.203,0.825-0.942,0.978-1.687,0.796c-0.348-0.085-0.691-0.251-0.993-0.443L29.375,4.308z"/>
		<path clip-path="url(#SVGID_2_)" fill="#FFFFFF" d="M36.448,3.895c1.034,0.542,1.26,1.588,0.797,2.473
			c-0.466,0.887-1.454,1.293-2.489,0.752c-1.04-0.546-1.266-1.592-0.801-2.478C34.419,3.757,35.408,3.349,36.448,3.895z
			 M35.084,6.482c0.457,0.24,0.99,0.126,1.34-0.542c0.351-0.671,0.144-1.174-0.314-1.414c-0.453-0.239-0.985-0.125-1.335,0.546
			C34.423,5.741,34.629,6.245,35.084,6.482z"/>
		<path clip-path="url(#SVGID_2_)" fill="#FFFFFF" d="M46.528,26.856c-0.09,0.199-0.213,0.529-0.242,0.771
			c-0.033,0.277-0.016,0.577,0.305,0.615c0.317,0.038,0.394-0.359,0.56-0.747c0.168-0.383,0.422-0.765,1.086-0.685
			c0.734,0.087,0.987,0.87,0.91,1.517c-0.046,0.382-0.178,0.724-0.353,1.06l-0.604-0.327c0.113-0.217,0.21-0.522,0.23-0.707
			c0.051-0.423-0.083-0.601-0.298-0.626c-0.139-0.016-0.27,0.066-0.402,0.455c-0.303,0.849-0.682,1.044-1.161,0.986
			c-0.843-0.1-1.084-0.816-0.994-1.576c0.043-0.356,0.166-0.717,0.321-1.038L46.528,26.856z"/>
		<path clip-path="url(#SVGID_2_)" fill="#FFFFFF" d="M5.637,33.761c-0.013-0.219-0.057-0.572-0.143-0.797
			c-0.1-0.262-0.255-0.516-0.557-0.401c-0.297,0.114-0.181,0.501-0.15,0.92c0.032,0.42-0.017,0.875-0.639,1.112
			c-0.693,0.265-1.281-0.31-1.513-0.917c-0.137-0.36-0.18-0.726-0.181-1.105l0.685,0.011c0.001,0.243,0.059,0.557,0.125,0.731
			c0.151,0.399,0.353,0.493,0.557,0.414c0.13-0.05,0.207-0.184,0.143-0.587c-0.128-0.895,0.117-1.241,0.568-1.414
			c0.795-0.304,1.339,0.216,1.612,0.932c0.128,0.335,0.187,0.711,0.201,1.069L5.637,33.761z"/>
		<path clip-path="url(#SVGID_2_)" fill="#FFFFFF" d="M14.015,3.895c1.034-0.543,2.024-0.136,2.488,0.749
			c0.465,0.887,0.239,1.931-0.796,2.477c-1.04,0.543-2.029,0.137-2.492-0.75C12.749,5.484,12.976,4.44,14.015,3.895z M15.372,6.487
			c0.458-0.242,0.666-0.744,0.312-1.414c-0.351-0.669-0.882-0.783-1.34-0.541c-0.454,0.236-0.662,0.74-0.311,1.41
			C14.385,6.609,14.917,6.724,15.372,6.487z"/>
		<path clip-path="url(#SVGID_2_)" fill="#FFFFFF" d="M19.162,4.782c0.219,0.012,0.571,0.012,0.81-0.046
			c0.269-0.068,0.542-0.191,0.464-0.507c-0.077-0.308-0.476-0.239-0.895-0.257c-0.421-0.019-0.867-0.125-1.028-0.772
			c-0.179-0.717,0.464-1.229,1.094-1.39c0.374-0.091,0.741-0.091,1.118-0.046l-0.093,0.679c-0.243-0.025-0.561-0.008-0.74,0.036
			c-0.415,0.103-0.533,0.292-0.48,0.504c0.034,0.135,0.16,0.226,0.566,0.212c0.902-0.019,1.219,0.266,1.335,0.735
			c0.206,0.824-0.378,1.302-1.122,1.489c-0.347,0.085-0.729,0.097-1.084,0.068L19.162,4.782z"/>
		<circle clip-path="url(#SVGID_2_)" fill="#FFFFFF" cx="25.231" cy="2.972" r="0.868"/>
		<circle clip-path="url(#SVGID_2_)" fill="#FFFFFF" cx="43.575" cy="12.603" r="0.867"/>
		<circle clip-path="url(#SVGID_2_)" fill="#FFFFFF" cx="25.231" cy="47.545" r="0.869"/>
		<circle clip-path="url(#SVGID_2_)" fill="#FFFFFF" cx="6.885" cy="12.603" r="0.868"/>
	</g>
	<path fill="#DD0031" d="M28.526,28.55c-0.271,0.277-0.647,0.448-1.063,0.448h-0.876c-0.489,0-0.924,0.237-1.196,0.604h-0.322
		c-0.271-0.367-0.706-0.604-1.195-0.604H23c-0.821,0-1.488-0.666-1.488-1.487v-5.974"/>
	<path fill="#FFFFFF" d="M21.511,21.538h7.44v5.974c0,0.407-0.162,0.771-0.425,1.039"/>
	<path fill="#FFCE00" d="M29.338,27.491c0,1.037-0.84,1.874-1.875,1.874h-0.876c-0.458,0-0.852,0.281-1.021,0.677h-0.67
		c-0.168-0.396-0.562-0.677-1.021-0.677H23c-1.036,0-1.876-0.837-1.876-1.874v-6.342h8.215V27.491z M28.572,21.92H21.89v5.571
		c0,0.609,0.498,1.105,1.109,1.105h0.875c0.534,0,1.005,0.225,1.346,0.58h0.022c0.343-0.355,0.813-0.58,1.345-0.58h0.876
		c0.612,0,1.109-0.496,1.109-1.105V21.92z"/>
	<path d="M29.338,27.491c0,1.037-0.84,1.874-1.875,1.874h-0.876c-0.458,0-0.852,0.281-1.021,0.677h-0.67
		c-0.168-0.396-0.562-0.677-1.021-0.677H23c-1.036,0-1.876-0.837-1.876-1.874v-6.342h8.215V27.491z M28.572,21.92H21.89v5.571
		c0,0.609,0.498,1.105,1.109,1.105h0.875c0.534,0,1.005,0.225,1.346,0.58h0.022c0.343-0.355,0.813-0.58,1.345-0.58h0.876
		c0.612,0,1.109-0.496,1.109-1.105V21.92z"/>
	<path d="M64.514,19.721h4.347v0.654h-0.12c-1.338,0-1.543,0.587-1.543,1.395v4.179c0,3.741-2.717,4.443-4.713,4.443
		c-3.021,0-4.933-1.307-4.933-3.874v-5.001c0-0.836-0.234-1.141-1.175-1.141h-0.285v-0.654h5.253v0.654h-0.285
		c-0.707,0-1.194,0.319-1.194,1.141v5.001c0,2.048,1.512,2.75,3.038,2.75c2.201,0,3.29-1.241,3.29-3.088v-4.076
		c0-1.189-0.339-1.729-1.378-1.729h-0.302V19.721z"/>
	<path d="M76.746,28.631c0,0.821,0.3,0.989,0.958,0.989v0.538h-3.963v-0.538c0.688-0.05,0.958-0.52,0.958-1.897v-1.459
		c0-1.342-0.371-1.863-1.039-1.863c-0.521,0-1.076,0.251-1.781,0.738v3.409c0,0.754,0.32,1.072,0.989,1.072h0.151v0.538h-4.244
		v-0.538h0.099c0.707,0,0.957-0.302,0.957-1.174v-3.273c0-0.368-0.2-0.586-0.789-0.754l-0.35-0.101v-0.403l2.867-0.972h0.319v1.491
		c1.223-0.804,2.299-1.309,3.104-1.309c1.227,0,1.763,0.875,1.763,2.886V28.631z"/>
	<path d="M83.005,30.158h-4.193v-0.538h0.184c0.689,0,0.939-0.302,0.939-1.174v-3.22c0-0.438-0.102-0.557-0.571-0.722l-0.552-0.204
		v-0.402l2.868-0.955h0.304v5.621c0,0.687,0.282,1.055,1.021,1.055V30.158z M82.218,20.275c0,0.671-0.639,1.141-1.326,1.141
		c-0.774,0-1.342-0.488-1.342-1.141c0-0.604,0.638-1.142,1.342-1.142C81.66,19.133,82.218,19.639,82.218,20.275z"/>
	<path d="M83.19,23.313h4.263v0.536h-0.586c-0.355,0-0.503,0.318-0.219,0.94l1.491,3.34l1.309-2.956
		c0.386-0.873,0.188-1.207-0.988-1.324v-0.536h3.338v0.536c-0.875,0.084-1.089,0.303-1.41,1.006l-2.396,5.42h-1.008l-2.5-5.384
		c-0.318-0.689-0.557-0.958-1.293-1.042V23.313z"/>
	<path d="M98.559,28.213c-0.94,1.323-2.297,2.129-3.588,2.129c-1.833,0-3.071-1.411-3.071-3.439c0-2.216,1.492-3.778,3.588-3.778
		c0.892,0,1.592,0.285,2.114,0.807c0.994,0.989,0.521,1.929,1.108,2.232v0.485h-4.647c0.134,1.395,1.072,2.451,2.062,2.451
		c0.622,0,1.225-0.351,2.049-1.21L98.559,28.213z M96.396,25.996c-0.016-1.291-0.469-2.08-1.191-2.08c-0.69,0-1.31,0.889-1.192,2.08
		H96.396z"/>
	<path d="M104.263,30.158h-4.661v-0.538h0.118c0.684,0,0.937-0.302,0.937-1.174V25.71c0-0.755-0.101-0.921-0.604-1.124l-0.451-0.186
		v-0.419l2.748-1.038h0.355v1.878h0.036c0.619-1.208,0.885-1.696,1.455-1.696c0.121,0,0.253,0.018,0.336,0.051l1.323,0.489
		c-0.197,0.702-0.468,1.307-0.802,1.776c-0.521-0.2-1.144-0.417-1.361-0.417c-0.332,0-0.62,0.232-0.987,0.753v2.718
		c0,0.807,0.254,1.125,1.124,1.125h0.434V30.158z"/>
	<path d="M106.918,28.179h0.537c0.285,0.938,1.024,1.442,1.744,1.442c0.47,0,0.87-0.353,0.87-0.771c0-1.157-3.151-1.56-3.151-3.592
		c0-1.275,1.058-2.131,2.63-2.131c0.639,0,1.177,0.101,1.883,0.354l0.034,1.795h-0.542c-0.3-0.923-0.854-1.426-1.573-1.426
		c-0.437,0-0.771,0.269-0.771,0.638c0,1.375,3.305,1.425,3.305,3.726c0,1.239-0.889,2.111-2.179,2.111
		c-1.162,0-1.548-0.235-1.783-0.235c-0.099,0-0.197,0.069-0.335,0.218h-0.484L106.918,28.179z"/>
	<path d="M117.455,30.158h-4.198v-0.538h0.188c0.686,0,0.941-0.302,0.941-1.174v-3.22c0-0.438-0.1-0.557-0.571-0.722l-0.559-0.204
		v-0.402l2.871-0.955h0.304v5.621c0,0.687,0.283,1.055,1.023,1.055V30.158z M116.667,20.275c0,0.671-0.638,1.141-1.327,1.141
		c-0.77,0-1.343-0.488-1.343-1.141c0-0.604,0.639-1.142,1.343-1.142C116.111,19.133,116.667,19.639,116.667,20.275z"/>
	<path d="M121.25,28.296c0,0.621,0.282,0.887,0.771,0.887c0.402,0,0.783-0.252,1.273-0.838l0.238,0.472
		c-0.507,0.903-1.512,1.525-2.437,1.525c-1.14,0-1.896-0.639-1.896-2.079v-4.029h-0.888v-0.438c1.007-0.418,2.146-1.643,2.447-2.581
		h0.49v2.097h2.196l-0.253,0.922h-1.943V28.296z"/>
	<path d="M131.045,28.213c-0.938,1.323-2.299,2.129-3.591,2.129c-1.826,0-3.067-1.411-3.067-3.439c0-2.216,1.49-3.778,3.586-3.778
		c0.894,0,1.597,0.285,2.118,0.807c0.987,0.989,0.522,1.929,1.106,2.232v0.485h-4.648c0.133,1.395,1.074,2.451,2.064,2.451
		c0.626,0,1.228-0.351,2.048-1.21L131.045,28.213z M128.88,25.996c-0.014-1.291-0.47-2.08-1.187-2.08
		c-0.691,0-1.312,0.889-1.192,2.08H128.88z"/>
	<path d="M136.168,30.158h-4.197v-0.538h0.187c0.688,0,0.94-0.302,0.94-1.174v-3.22c0-0.438-0.102-0.557-0.573-0.722l-0.554-0.204
		v-0.402l2.871-0.955h0.301v5.621c0,0.687,0.287,1.055,1.025,1.055V30.158z M135.381,20.275c0,0.671-0.641,1.141-1.325,1.141
		c-0.776,0-1.349-0.488-1.349-1.141c0-0.604,0.639-1.142,1.349-1.142C134.825,19.133,135.381,19.639,135.381,20.275z"/>
	<path d="M139.96,28.296c0,0.621,0.284,0.887,0.769,0.887c0.402,0,0.793-0.252,1.276-0.838l0.232,0.472
		c-0.501,0.903-1.509,1.525-2.43,1.525c-1.142,0-1.896-0.639-1.896-2.079v-4.029h-0.89v-0.438c1.001-0.418,2.146-1.643,2.452-2.581
		h0.485v2.097h2.191l-0.251,0.922h-1.94V28.296z"/>
	<path d="M154.904,19.677h4.348v0.654h-0.117c-1.342,0-1.546,0.585-1.546,1.392V25.9c0,3.743-2.718,4.445-4.712,4.445
		c-3.021,0-4.934-1.307-4.934-3.874v-4.999c0-0.841-0.235-1.141-1.177-1.141h-0.284v-0.654h5.252v0.654h-0.284
		c-0.707,0-1.19,0.318-1.19,1.141v4.999c0,2.047,1.508,2.752,3.034,2.752c2.198,0,3.294-1.241,3.294-3.088v-4.077
		c0-1.191-0.341-1.728-1.382-1.728h-0.302V19.677z"/>
	<path d="M161.916,28.252c0,0.622,0.283,0.886,0.772,0.886c0.404,0,0.785-0.25,1.276-0.837l0.234,0.469
		c-0.505,0.906-1.511,1.527-2.436,1.527c-1.139,0-1.896-0.639-1.896-2.08v-4.024h-0.89v-0.441c1.008-0.417,2.151-1.643,2.453-2.581
		h0.485v2.097h2.196l-0.25,0.925h-1.946V28.252z"/>
	<path d="M169.635,30.112h-4.668v-0.537h0.12c0.688,0,0.94-0.3,0.94-1.173v-2.735c0-0.755-0.101-0.923-0.605-1.125l-0.455-0.187
		v-0.417l2.753-1.041h0.356v1.878h0.032c0.618-1.208,0.889-1.693,1.46-1.693c0.115,0,0.254,0.017,0.333,0.049l1.327,0.489
		c-0.202,0.705-0.469,1.305-0.803,1.776c-0.524-0.203-1.146-0.419-1.364-0.419c-0.335,0-0.616,0.235-0.985,0.755v2.718
		c0,0.808,0.251,1.124,1.122,1.124h0.437V30.112z"/>
	<path d="M178.525,28.167c-0.936,1.322-2.298,2.13-3.589,2.13c-1.827,0-3.068-1.409-3.068-3.44c0-2.214,1.496-3.773,3.586-3.773
		c0.895,0,1.6,0.284,2.118,0.806c0.989,0.988,0.522,1.928,1.111,2.231v0.486h-4.654c0.136,1.392,1.075,2.448,2.065,2.448
		c0.62,0,1.226-0.351,2.048-1.209L178.525,28.167z M176.364,25.953c-0.016-1.292-0.471-2.08-1.192-2.08
		c-0.688,0-1.305,0.885-1.191,2.08H176.364z"/>
	<path d="M186.633,28.503c-0.774,1.172-1.949,1.793-3.423,1.793c-2.049,0-3.526-1.393-3.526-3.322c0-2.198,1.899-3.891,4.346-3.891
		c1.444,0,2.535,0.604,2.535,1.425c0,0.502-0.334,0.84-0.856,0.84c-1.174,0-1.422-1.495-2.396-1.495
		c-0.84,0-1.412,1.023-1.412,2.533c0,1.812,0.858,3.037,2.1,3.037c0.753,0,1.457-0.386,2.146-1.191L186.633,28.503z"/>
	<path d="M190.271,28.419c0,1.056,0.289,1.156,0.872,1.156h0.17v0.537h-4.25v-0.537h0.24c0.857,0,0.924-0.336,0.924-1.225v-7.332
		c0-0.485-0.089-0.604-0.537-0.755l-0.488-0.167v-0.387l2.669-0.821h0.4v5.467c0.942-0.653,2.148-1.272,3.021-1.272
		c1.229,0,1.829,0.987,1.829,2.967v2.219c0,0.99,0.114,1.307,0.756,1.307h0.164v0.537h-3.957v-0.537h0.135
		c0.704,0,0.854-0.27,0.854-1.225v-2.533c0-0.905-0.418-1.475-1.086-1.475c-0.458,0-1.128,0.249-1.716,0.636V28.419z"/>
	<path d="M199.704,28.252c0,0.622,0.282,0.886,0.771,0.886c0.4,0,0.786-0.25,1.273-0.837l0.236,0.469
		c-0.503,0.906-1.51,1.527-2.435,1.527c-1.139,0-1.896-0.639-1.896-2.08v-4.024h-0.886v-0.441c1.008-0.417,2.146-1.643,2.447-2.581
		h0.489v2.097h2.195l-0.248,0.925h-1.947V28.252z"/>
</g>
<image display="none" overflow="visible" width="200" height="51" xlink:href="logo-uu-200px.png"  transform="matrix(1 0 0 1 -0.459 -0.2383)">
</image>
</svg>
